/* XPM */
static char *result[] = {
/* columns rows colors chars-per-pixel */
"80 80 8 1 ",
"  c black",
". c #417021",
"X c #D31D1D",
"o c #4A9417",
"O c #6EC035",
"+ c #6EAE42",
"@ c #FBF236",
"# c white",
/* pixels */
"OOOoooo....++++oooooOOO....oooo...........++++oooo..++++oo++++oooo....oooOOOOooo",
"OOoooo....+++++ooooOOO....oooo.....++....++++oooo..++++ooo+++oooo....oooOOOOoooo",
"OOoooo....++++++oooOOO....oooo....++++...++++ooo...+++ooooo++oooo....oooOOOOoooo",
"..Oo++o..oo++++..oo++OO..oooo++...++++OO..+++ooo....++o..ooo++oooo...++ooO..O++o",
"...++++.oooo++....++++O.oooo++++..oo+OOOOoo+ooooo...o+....o++++oooo.++++o...++++",
"..+++++oooooo....++++++oooooo++++oooOOOOoooooooo++.oo.....+++++oooo+++++...+++++",
"..+++++oooooo....++++++oooooo+++ooooOOOOooooooo+++ooo.....++++++ooo+++++...+++++",
"...++++.oooo++....++++..oooo++++oooooOOOooooooo+++oooo....++++++oooo++++....++++",
"OOOoooo....++++oooooOO.....oooo..oo.....oo++++oo+ooo++++oo++++oooo....++oOOOOooo",
"OOoooo....+++++ooooOOO....oooo....o++...o++++oooo..++++ooo++   oo....o+oOOOOoooo",
"OOoooo....++++++oooOOO....oooo....++++...++++ooo...+++ooo    X  o....oooOOOOoooo",
"..Oo++o..oo++++..oo++OO..oooo++...++++OO..+++ooo....++o.. XXXXX  o...++ooO..O++o",
"...++++.oooo++....++++O.oooo++++..oo+OOOOoo+ooooo...o+..  XXXXXX oo.++++o...++++",
"..+++++oooooo....++++++oooooo++++oooOOOOoooooooo++.oo... XXXXXXXX o+++++...+++++",
"..+++++oooooo....++++++oooooo+++ooooOOOOooooooo+++ooo..  XXXXXXXX o+++++...+++++",
"...++++ooooo++....+++....ooo++++oooooOOOOoooooo+++oooo   ##XXXXXX  o++++++..++++",
"..++++...oo++++..oo++....oooo+++.ooooOOOOOoo+oo++++oo   ######XXXX ..+++++..+++o",
"OOOoooo....++++oooooO......oooo+..........++++oooo..   ########XXX ...oooOOOOooo",
"OOoooo....+++++ooooOOO....oooo.....++....++++oooo..+  #####  ###XX ..oooOOOOoooo",
"OOoooo....++++++oooOOO....oooo....++++...++++ooo...+  #####  ###XX ..oooOOOOoooo",
"..Oo++o..oo++++..oo++OO..oooo++...++++OO..+++ooo...   #########XXX  .++ooO..O++o",
"...++++.oooo++....++++O.oooo++++..oo+OOOOoo+ooooo..  #########X@@@@@ +++o...++++",
"..+++++oooooo....++++++oooooo++++oooOOOOoooooooo++.  #########X@@@@@ +++...+++++",
"..+++++oooooo....++++++oooooo+++ooooOOOOooooooo+++o  #########XXXXX ++++...+++++",
"...++++.oooo++....++++..oooo++++oooooOOOooooooo+++o  ##########XXXX ++++....++++",
"OOOoooo....++++oooooOO.....oooo..oo.....oo++++oo+oo  ##########XXX ...++oOOOOooo",
"OOoooo....+++++ooooOOO....oooo....o++...o++++oooo..  ###########XX   o+oOOOOoooo",
"OOoooo....++++++oooOOO....oooo....++++...++++ooo...  ############XXX oooOOOOoooo",
"..Oo++o..oo++++..oo++OO..oooo++...++++OO..+++ooo... #############    ++ooO..O++o",
"...++++.oooo++....++++O.oooo++++..oo+OOOOoo+ooooo.. #############  .++++o...++++",
"..+++++oooooo....+ ++++oooooo++++oooOOOOoooooooo++. #############  +++++...+++++",
"..+++++oooooo....  ++++oooooo+++ooooOOOOooooooo+++o #############  +++++...+++++",
"...++++..oo+++..   +++++oooo++++oooooOOOOoooooo+++  #############  oo++++...++++",
"..ooo+...oo++++  #  +++++oo++++ooooooooOooooooooo  ##############  oo+++++..++++",
"OOOoooo....++++  ## OOO....oooo...........++++     ##############  ...oooOOOO+++",
"OOoooo....++++ # ##  O....oooo.....++....++++    ################  ..oooOOOOoooo",
"OOoooo....+++ ## ###  ....oooo....++++...+      #################  ..oooOOOOoooo",
"..Oo++o..oo++ ## ####   .oooo++...++++O       #################### ..++ooO..O++o",
"...++++.oooo ### ######                    ####################### .++++o...++++",
"..+++++ooooo ### ########               ##########################  ++++...+++++",
"..+++++ooooo #### ###########     ################################  ++++...+++++",
"...++++.ooo ###### ###############################################  ++++....++++",
"OOOoooo.... ######  ############################################### ..++oOOOOooo",
"OOoooo....+ ########  ############################################  .o+oOOOOoooo",
"OOoooo....+ ########## #########  ################################  .oooOOOOoooo",
"..Oo++o..oo ################     #################################  .++ooO..O++o",
"...++++.ooo ###############  #####################################  ++++o...++++",
"..+++++oooo ##############  ######################################  ++++...+++++",
"..+++++oooo #############  ########################  #############   +++...+++++",
"...++++oooo ############ ########################## ##############   +++++..++++",
"..++++...oo ##########  ########################## ################  +++++..+++o",
"OOOoooo.... #########  ########################## #################  .oooOOOOooo",
"OOoooo....+ ########  ########################## ############## ###  oooOOOOoooo",
"OOoooo....+ #######  ########################## ############## ###  .oooOOOOoooo",
"..Oo++o..oo ##    # ######################     ############   ####  .++ooO..O++o",
"...++++.oooo   #  # ######################  #############  ######  .++++o...++++",
"..+++++oooooo   ## ###########  ###   #             ###  ######  oo+++++...+++++",
"..+++++oooooo  ##  #######    ##     ###  #### #  ####  ####### ooo+++++...+++++",
"..++++.oooo++. #  #####   #     #  ####  #### #  ####  ####### ++oooo++++....+++",
"OOoooo....++++   ##### ### #####   ###  ####  # ###  # ###### +oooo....++oOOOOoo",
"Ooooo....+++++o  #### ### #####   #### ##### #  ## ## ######  oooo....o+oOOOOooo",
"Ooooo....++++++o  ##     ####   # ### ####  ## ## ## ######  +oooo....oooOOOOooo",
".Oo++o..oo++++..o      ####  ### #### #### ##    ### #####  o++oooo...++ooO..O++",
"..++++.oooo++....+         #### #### ##   ###  #### #####  o++++oooo.++++o...+++",
".+++++oooooo....+++  ######### ####     #### #####  ####  ++++++oooo+++++...++++",
".+++++oooooo....++++  ######## ##  #  ##### ###### ####  .++++++oooo+++++...++++",
".+++++ooooo.....++++++  ####  ## ### ##### ####   ####  ..++++++oooo+++++...++++",
"+++++oooooo....+++++++o                    ###  ###   ...++++++oooo+++++...+++++",
"+++++oooooo....+++++++oo                            .....++++++oooo+++++...+++++",
".++++.oooo++....+++++O.oooo++++..oo+OOOOoo+ooooo...o+....o+++++oooo.++++o...++++",
"Oo++o..oo++++..oo+++OO..oooo++...++++OO..+++ooo....++o..oooo++oooo...++ooO..O++o",
"oooo....++++++oooOOOO....oooo....++++...++++ooo...+++ooooo+++oooo....oooOOOOoooo",
"oooo....+++++ooooOOOO....oooo....o++...o++++oooo..++++ooo++++oooo....o+oOOOOoooo",
"Ooooo....++++ooooooOO.....oooo..oo.....oo++++oo+ooo++++oo+++++oooo....++oOOOOooo",
".++++.oooo++....+++++..oooo++++oooooOOOooooooo+++oooo....+++++++oooo++++....++++",
"+++++oooooo....+++++++oooooo+++ooooOOOOooooooo+++ooo.....+++++++ooo+++++...+++++",
"+++++oooooo....+++++++oooooo++++oooOOOOoooooooo++.oo.....++++++oooo+++++...+++++",
".++++.oooo++....+++++O.oooo++++..oo+OOOOoo+ooooo...o+....o+++++oooo.++++o...++++",
"Oo++o..oo++++..oo+++OO..oooo++...++++OO..+++ooo....++o..oooo++oooo...++ooO..O++o",
"oooo....++++++oooOOOO....oooo....++++...++++ooo...+++ooooo+++oooo....oooOOOOoooo"
};
