/* XPM */
static char *result[] = {
/* columns rows colors chars-per-pixel */
"80 80 7 1 ",
"  c #1B0F18",
". c #417021",
"X c #4A9417",
"o c #6EC035",
"O c #6EAE42",
"+ c #E4945E",
"@ c white",
/* pixels */
"oooXXXX....OOOOXXXXXooo....XXXX...........OOOOXXXX..OOOOXXOOOOXXXX....XXXooooXXX",
"ooXXXX....OOOOOXXXXooo....XXXX.....OO....OOOOXXXX..OOOOXXXOOOXXXX....XXXooooXXXX",
"ooXXXX....OOOOOOXXXooo....XXXX....OOOO...OOOOXXX...OOOXXXXXOOXXXX....XXXooooXXXX",
"..oXOOX..XXOOOO..XXOOoo..XXXXOO...OOOOoo..OOOXXX....OOX..XXXOOXXXX...OOXXo..oOOX",
"...OOOO.XXXXOO....OOOOo.XXXXOOOO..XXOooooXXOXXXXX...XO....XOOOOXXXX.OOOOX...OOOO",
"..OOOOOXXXXXX....OOOOOOXXXXXXOOOOXXXooooXXXXXXXXOO.XX.....OOOOOXXXXOOOOO...OOOOO",
"..OOOOOXXXXXX....OOOOOOXXXXXXOOOXXXXooooXXXXXXXOOOXXX.....OOOOOOXXXOOOOO...OOOOO",
"...OOOO.XXXXOO....OOOO..XXXXOOOOXXXXXoooXXXXXXXOOOXXXX....OOOOOOXXXXOOOO....OOOO",
"oooXXXX....OOOOXXXXXoo.....XXXX..XX.....XXOOOOXXOXXXOOOOXXOOOOXXXX....OOXooooXXX",
"ooXXXX....OOOOOXXXXooo....XXXX....XOO...XOOOOXXXX..OOOOXXXOOOXXXX....XOXooooXXXX",
"ooXXXX....OOOOOOXXXooo....XXXX....OOOO...OOOOXXX...OOOXXXXXOOXXXX....XXXooooXXXX",
"..oXOOX..XXOOOO..XXOOoo..XXXXOO...OOOOoo..OOOXXX....OOX..XXXOOXXXX...OOXXo..oOOX",
"...OOOO.XXXXOO....OOOOo.XXXXOOOO..XXOooooXXOXXXXX...XO....XOOOOXXXX.OOOOX...OOOO",
"..OOOOOXXXXXX....OOOOOOXXXXXXOOOOXXXooooXXXXXXXXOO.XX.....OOOOOXXXXOOOOO...OOOOO",
"..OOOOOXXXXXX....OOOOOOXXXXXXOOOXXXXooooXXXXXXXOOOXXX.....OOOOOXXXXOOOOO...OOOOO",
"...OOOOXXXXXOO....OOO....XXXOOOOXXXXXooooXXXXXXOOOXXXX......OOOOXXXXOOOOOO..OOOO",
"..OOOO...XXOOOO..XXOO....XXXXOOO.XXXXoooooXXOXXOOOOXXXX.....OOOOOXX..OOOOO..OOOX",
"oooXXXX....OOOOXXXXXo......XXXXO..........OOOOXXXX..OOOOXXOOOOXXXX....XXXooooXXX",
"ooXXXX....OOOOOXXXXooo....XXXX.....OO....OOOOXXXX..OOOOXXXOOOXXXX....XXXooooXXXX",
"ooXXXX....OOOOOOXXXooo....XXXX....OOOO...OOOOXXX...OOOXXXXXOOXXXX....XXXooooXXXX",
"..oXOOX..XXOOOO..XXOOoo..XXXXOO...OOOOoo..OOOXXX....OOX..XXXOOXXXX...OOXXo..oOOX",
"...OOOO.XXXXOO....OOOOo.XXXXOOOO..XXOooooXXOXXXXX...XO....XOOOOXXXX.OOOOX...OOOO",
"..OOOOOXXXXXX....OOOOOOXXXXXXOOOOXXXooooXXXXXXXXOO.X    ..OOOOOXXXXOOOOO   OOOOO",
"..OOOOOXXXXXX....OOOOOOXXXXXXOOOXXXXooooXXXXXXXOOOXX  ++    OOOOXXXO    ++ OOOOO",
"...OOOO.XXXXOO....OOOO..XXXXOOOOXXXXXoooXXXXXXXOOOXXX  + ++  OOOXXX  ++++  .OOOO",
"oooXXXX....OOOOXXXXXoo.....XXXX..XX.....XXOOOOXXOXXXOO  + ++ OXXXX  ++ ++ oooXXX",
"ooXXXX....OOOOOXXXXooo....XXXX....XOO...XOOOOXXXX..OOO  + ++ XXXX.  ++ ++ ooXXXX",
"ooXXXX....OOOOOOXXXooo....XXXX....OOOO...OOOOXXX...OOOX +  +  XXX  +   +  ooXXXX",
"..oXOOX..XXOOOO..XXOOoo..XXXXOO...OOOOoo..OOOXXX....OOX  ++++     ++ +++ o..oOOX",
"...OOOO.XXXXOO....OOOOo.XXXXOOOO..XXOooooXXOXXXXX...XO.. +++++++++++++   ...OOOO",
"..OOOOOXXXXXX....OOOOOOXXXXXXOOOOXXXooooXXXXXXXXOO.XX...  ++++++++++++ O...OOOOO",
"..OOOOOXXXXXX....OOOOOOXXXXXXOOOXXXXooooXXXXXXXOOOXXX.... +++++++++++  O...OOOOO",
"...OOOO..XXOOO....OOOOOOXXXXOOOOXXXXXooooXXXXXXOOOXXXX... +++++++++++  OO...OOOO",
"..XXXO...XXOOOO..OOOOOOOOXXOOOOXXXXXXXXoXXXXXXX      XX.  + +++++++ ++  OO     O",
"oooXXXX....OOOOXXXXXooo....XXXX...........OOOOXXXX.     +++   +++   +++    ooOOO",
"ooXXXX....OOOOOXXXXooo....XXXX.....OO....OOOOXXXX.  @@@@+++++++++++++++@@@   XXX",
"ooXXXX....OOOOOOXXXooo....XXXX....OOOO...OOOOXXX..  @@@@@@+++@@@@@+++@@@@@@@ XXX",
"..oXOOX..XXOOOO..XXOOoo..XXXXOO...OOOOoo..OOOXXX      @@@@@@@@@@@@@@@@@@@@@@ OOX",
"...OOOO.XXXXOO....OOOOo.XXXXOOOO..XXOooooXXOXXX  ...X   @@@@@@   @@@@@@@@@  OOOO",
"..OOOOOXXXXXX....OOOOOOXXXXXXOOOOXXXooooXXXXXXXXOO.XX.. @@@@@@@ @@@@@@@@     OOO",
"..OOOOOXXXXXX....OOOOOOXXXXXXOOOXXXXooooXXXXXXXOO       @@@@@@@@@@@@@@   ..OO OO",
"...OOOO.XXXXOO....OOOO..XXXX                      +++++++@@@@@@@@@@@@  O....O  O",
"oooXXXX....OOOOXXXXXoo.     +++++++++++++++++++++++++++++++@@@@@@@@@@  OXooooXXX",
"ooXXXX....OOOOOXXXXo    +++++++++++++++++++++++++++++++++++++@@@@@@@@@ XooooXXXX",
"ooXXXX....OOOOOOXXXo    +++++++++++++++++++++++++++++++++++++@@@@@@@@@ XooooXXXX",
"..oXOOX..XXOOOO.     +++++++++++++++++++++++++++++++++++++++++@@@@@@@@ XXo..oOOX",
"...OOOO.XXXXO   ++++++++++++++++++++++++++++++++++++++++++++++@@@@@@@ OOX...OOOO",
"..OOOOOXXXXX  ++++++++++++++++++++++++++++++++++++++++++++++++@@@@@@@ OO...OOOOO",
"..OOOOOXXX  +++++++++++++++++++++++++++++++++++++++++++++++++@@@@@@@@ OO...OOOOO",
"...OOOOXX  ++++++++++++++++++++++++++++@@@@@@@@@@@@++++++++++@@@@@@@  OOOO..OOOO",
"..OOOO..  ++++++++++++++ +++++++++++++@  @@@@@@@@@@@@@@++++++@@@@@@+ OOOOO..OOOX",
"oooXXX   @+++++++++++++  ++++++++++++@ .. @@@@@@@@@@@@@@@+++++@  +++ .XXXooooXXX",
"ooXXX  @@@@@+++++++++++  ++++++++++++  ..         @@@@@@@++++++  +++ XXXooooXXXX",
"ooXX  @@@@@@@+++++++++   +++++++++++++ ..OOOOXXX  @@@@@@@@+++++   ++ XXXooooXXXX",
"..oX @@@@@@@@@++++++++ . +++++++++++   o..OOOXXX.     @@@@+++++ X +++ OXXo..oOOX",
"...  @@@@@@@@@@+++++  o. +++++++++++  oooXXOXXXXX...X      ++++ XX ++ OOX...OOOO",
"..  @@@@@@@@@@@@+++  OO  +++++   ++  oooXXXXXXXXOO.XX..... ++++ XX    OO...OOOOO",
".. @@@@@@@@@@@@@++  OO  +++++  O ++ ooooXXXXXXXOOOXXX.....O     XX    OO...OOOOO",
". @@@@@@@@@@@@@@   OO  +++++  OO ++ XoooXXXXXXXOOOXXXX....O     OX    OOO....OOO",
"o @@@@@@@@@@@@   XXXo ++++++ XX.    ....XXOOOOXXOXXXOOOOXXOO     XX   .OOXooooXX",
"o @@@@@@@@@@   XXXXoo       XX..     ...XOOOOXXXX..OOOOXXXOO     X.    OXooooXXX",
"o @@@@@@@    OOXXXXoo       XX..     O...OOOOXXX...OOOXXXXXX     X.    XXooooXXX",
". @@@@   XOOOO..XXXOOo     XXOO..    Ooo..OOOXXX....OOX..XXXX    XX    OXXo..oOO",
". @@@@   XXOO....OOOOO     XOOOO.    ooooXXOXXXXX...XO....XXO    XX    OOX...OOO",
".     XXXXXX....OOOOOO      XOOOOX    ooXXXXXXXXOO.XX.....OOO    XXX    O...OOOO",
".OOOOOXXXXXX....OOOOOO      OOOOXXX    oXXXXXXXOOOXXXX....OOO     XX    O...OOOO",
".OOOOOXXXXX.....OOOOOOX      OOXXXX    oXXXXXXOOOXXXX.....OOOO    XXO   O...OOOO",
"OOOOOXXXXXX....OOOOOOOXXX     OXXXXo    XXXXXXOOOXXX.....OOOOO     OOO   ..OOOOO",
"OOOOOXXXXXX....OOOOOOOXXXX     OXXXoo    XXXXXXOO.XX.....OOOOOO    OOO   ..OOOOO",
".OOOO.XXXXOO....OOOOOo.XXXX     .XXOo    XOXXXXX...XO....XOOOOO    .OO    ..OOOO",
"oXOOX..XXOOOO..XXOOOoo..XXXXOO...OOOOoo..OOOXXX....OOX..XXXXOOXXXX...OOXXo..oOOX",
"XXXX....OOOOOOXXXoooo....XXXX....OOOO...OOOOXXX...OOOXXXXXOOOXXXX....XXXooooXXXX",
"XXXX....OOOOOXXXXoooo....XXXX....XOO...XOOOOXXXX..OOOOXXXOOOOXXXX....XOXooooXXXX",
"oXXXX....OOOOXXXXXXoo.....XXXX..XX.....XXOOOOXXOXXXOOOOXXOOOOOXXXX....OOXooooXXX",
".OOOO.XXXXOO....OOOOO..XXXXOOOOXXXXXoooXXXXXXXOOOXXXX....OOOOOOOXXXXOOOO....OOOO",
"OOOOOXXXXXX....OOOOOOOXXXXXXOOOXXXXooooXXXXXXXOOOXXX.....OOOOOOOXXXOOOOO...OOOOO",
"OOOOOXXXXXX....OOOOOOOXXXXXXOOOOXXXooooXXXXXXXXOO.XX.....OOOOOOXXXXOOOOO...OOOOO",
".OOOO.XXXXOO....OOOOOo.XXXXOOOO..XXOooooXXOXXXXX...XO....XOOOOOXXXX.OOOOX...OOOO",
"oXOOX..XXOOOO..XXOOOoo..XXXXOO...OOOOoo..OOOXXX....OOX..XXXXOOXXXX...OOXXo..oOOX",
"XXXX....OOOOOOXXXoooo....XXXX....OOOO...OOOOXXX...OOOXXXXXOOOXXXX....XXXooooXXXX"
};
