/* XPM */
static char *result[] = {
/* columns rows colors chars-per-pixel */
"80 80 5 1 ",
"  c #1B0F18",
". c #6ABE30",
"X c #E4945E",
"o c white",
"O c None",
/* pixels */
"................................................................................",
"................................................................................",
"................................................................................",
"................................................................................",
"................................................................................",
"................................................................................",
"................................................................................",
"................................................................................",
"................................................................................",
"................................................................................",
"................................................................................",
"................................................................................",
"................................................................................",
"................................................................................",
"................................................................................",
"................................................................................",
"................................................................................",
"................................................................................",
"................................................................................",
"................................................................................",
"................................................................................",
"................................................................................",
"....................................................    ................   .....",
"....................................................  XX    ........    XX .....",
".....................................................  X XX  ......  XXXX  .....",
"......................................................  X XX .....  XX XX ......",
"....................................................... X  X  ...  X   X  ......",
".......................................................  XXXX     XX XXX .......",
"........................................................ XXXXXXXXXXXXX   .......",
"........................................................  XXXXXXXXXXXX .........",
"......................................................... XXXXXXXXXXX  .........",
"......................................................... XXXXXXXXXXX  .........",
"...............................................      ...  X XXXXXXX XX  ..     .",
"...................................................     XXX   XXX   XXX    .....",
"..................................................  ooooXXXXXXXXXXXXXXXooo   ...",
"..................................................  ooooooXXXoooooXXXooooooo ...",
"................................................      oooooooooooooooooooooo ...",
"...............................................  ....   oooooo   ooooooooo  ....",
"....................................................... ooooooo oooooooo     ...",
".................................................       oooooooooooooo   .... ..",
"............................                      XXXXXXXoooooooooooo  ......  .",
"..........................  XXXXXXXXXXXXXXXXXXXXXXXXXXXXXXXoooooooooo  .........",
".....................      XXXXXXXXXXXXXXXXXXXXXXXXXXXXXXXXXXooooooooo .........",
"....................  XXXXXXXXXXXXXXXXXXXXXXXXXXXXXXXXXXXXXXXXoooooooo .........",
".................   XXXXXXXXXXXXXXXXXXXXXXXXXXXXXXXXXXXXXXXXXXoooooooo .........",
".............    XXXXXXXXXXXXXXXXXXXXXXXXXXXXXXXXXXXXXXXXXXXXXooooooo ..........",
"...........  XXXXXXXXXXXXXXXXXXXXXXXXXXXXXXXXXXXXXXXXXXXXXXXXXooooooo ..........",
"..........  XXXXXXXXXXXXXXXXXXXXXXXXXXXXXXXXXXXXXXXXXXXXXXXXXoooooooo ..........",
".........  XXXXXXXXXXXXXXXXXXXXXXXXXXXXooooooooooooXXXXXXXXXXooooooo  ..........",
".......   oXXXXXXXXXXXXXXXXXXXXXXXXXXXo  ooooooooooooooXXXXXXooooooX ...........",
"......  oooooXXXXXXXXXXX XXXXXXXXXXXXo .. oooooooooooooooXXXXXo  XXX ...........",
".....  ooooooXXXXXXXXXX  XXXXXXXXXXXX  ..         oooooooXXXXXX  XXX ...........",
"....  ooooooooXXXXXXXX   XXXXXXXXXXXXX .........  ooooooooXXXXX   XX ...........",
"..  ooooooooooXXXXXXXX   XXXXXXXXXXX   ..........     ooooXXXXX . XXX ..........",
".. ooooooooooooXXXXX   O XXXXXXXXXXX  ...............      XXXX .. XX ..........",
". ooooooooooooooXXX  ..  XXXXX   XX  ..................... XXXX ..    ..........",
". ooooooooooooooXX  ..  XXXXX  . XX .......................     ..    ..........",
". oooooooooooooo   ..  XXXXX  .. XX .......................     ..    ..........",
". oooooooooooo   .... XXXXXX ...    ........................     ..   ..........",
". ooooooo     .......       ....     .......................     ..    .........",
".   oo   ............       ....     .......................     ..    .........",
"....  ................     ......    ........................    ..    .........",
"......................      ......    .......................    ...    ........",
"......................      .......    ......................     ..    ........",
".......................      ......    .......................    ...   ........",
".........................     ......    ......................     ...   .......",
"..........................     ......    ......................    ...   .......",
"...........................     .....    ......................    ...    ......",
"................................................................................",
"................................................................................",
"................................................................................",
"................................................................................",
"................................................................................",
"................................................................................",
"................................................................................",
"................................................................................",
"................................................................................",
"................................................................................",
"................................................................................",
"................................................................................"
};
