/* XPM */
static char *result[] = {
/* columns rows colors chars-per-pixel */
"80 80 8 1 ",
"  c black",
". c #417021",
"X c #D31D1D",
"o c #4A9417",
"O c #6EC035",
"+ c #6EAE42",
"@ c #FBF236",
"# c white",
/* pixels */
"OOOoooo....++++oooooOOO....oooo...........++++oooo..++++oo++++oooo....oooOOOOooo",
"OOoooo....+++++ooooOOO....oooo.....++....++++oooo..++++ooo+++oooo....oooOOOOoooo",
"OOoooo....++++++oooOOO....oooo....++++...++++ooo...+++ooooo++oooo....oooOOOOoooo",
"..Oo++o..oo++++..oo++OO..oooo++...++++OO..+++ooo....++o..ooo++oooo...++ooO..O++o",
"...++++.oooo++....++++O.oooo++++..oo+OOOOoo+ooooo...o+....o++++oooo.++++o...++++",
"..+++++oooooo....++++++oooooo++++oooOOOOoooooooo++.oo.....+++++oooo+++++...+++++",
"..+++++oooooo....++++++oooooo+++ooooOOOOooooooo+++ooo.....++   +ooo+++++...+++++",
"...++++.oooo++....++++..oooo++++oooooOOOooooooo+++oooo...    X  oooo++++....++++",
"OOOoooo....++++oooooOO.....oooo..oo.....oo++++oo+ooo++++o XXXXX  o....++oOOOOooo",
"OOoooo....+++++ooooOOO....oooo....o++...o++++oooo..++++o  XXXXXX ....o+oOOOOoooo",
"OOoooo....++++++oooOOO....oooo....++++...++++ooo...+++oo XXXXXXXX ...oooOOOOoooo",
"..Oo++o..oo++++..oo++OO..oooo++...++++OO..+++ooo....++o  XXXXXXXX ...++ooO..O++o",
"...++++.oooo++....++++O.oooo++++..oo+OOOOoo+ooooo...o+   ##XXXXXX  .++++o...++++",
"..+++++oooooo....++++++oooooo++++oooOOOOoooooooo++.oo   ######XXXX +++++...+++++",
"..+++++oooooo....++++++oooooo+++ooooOOOOooooooo+++oo   ########XXX +++++...+++++",
"...++++ooooo++....+++....ooo++++oooooOOOOoooooo+++oo  #####  ###XX o++++++..++++",
"..++++...oo++++..oo++....oooo+++.ooooOOOOOoo+oo++++o  #####  ###XX ..+++++..+++o",
"OOOoooo....++++oooooO......oooo+..........++++oooo.   #########XXX  ..oooOOOOooo",
"OOoooo....+++++ooooOOO....oooo.....++....++++oooo..  #########X@@@@@ oooOOOOoooo",
"OOoooo....++++++oooOOO....oooo....++++...++++ooo...  #########X@@@@@ oooOOOOoooo",
"..Oo++o..oo++++..oo++OO..oooo++...++++OO..+++ooo...  #########XXXXX .++ooO..O++o",
"...++++.oooo++....++++O.oooo++++..oo+OOOOoo+ooooo..  ##########XXXX ++++o...++++",
"..+++++oooooo....++++++oooooo++++oooOOOOoooooooo++.  ##########XXX +++++...+++++",
"..+++++oooooo....++++++oooooo+++ooooOOOOooooooo+++o  ###########XX   +++...+++++",
"...++++.oooo++....++++..oooo++++oooooOOOooooooo+++o  ############XXX +++....++++",
"OOOoooo....++++oooooOO.....oooo..oo.....oo++++oo+oo #############    .++oOOOOooo",
"OOoooo....+++++ooooOOO....oooo....o++...o++++oooo.. #############  ..o+oOOOOoooo",
"OOoooo....++++++oo OOO....oooo....++++...++++ooo... #############  ..oooOOOOoooo",
"..Oo++o..oo++++..  ++OO..oooo++...++++OO..+++ooo... #############  ..++ooO..O++o",
"...++++.oooo++..   +++O.oooo++++..oo+OOOOoo+ooooo.  #############  .++++o...++++",
"..+++++oooooo..  #  +++oooooo++++oooOOOOoooooooo+  ##############  +++++...+++++",
"..+++++oooooo..  ## +++oooooo+++ooooOOOOoooooo     ##############  +++++...+++++",
"...++++..oo+++ # ##  +++oooo++++oooooOOOOoooo    ################  oo++++...++++",
"..ooo+...oo++ ## ###  +++oo++++ooooooooOoo      #################  oo+++++..++++",
"OOOoooo....++ ## ####   ...oooo........       #################### ...oooOOOO+++",
"OOoooo....++ ### ######                    ####################### ..oooOOOOoooo",
"OOoooo....++ ### ########               ##########################  .oooOOOOoooo",
"..Oo++o..oo+ #### ###########     ################################  .++ooO..O++o",
"...++++.ooo ###### ###############################################  ++++o...++++",
"..+++++oooo ######  ############################################### ++++...+++++",
"..+++++oooo ########  ############################################  ++++...+++++",
"...++++.ooo ########## #########  ################################  ++++....++++",
"OOOoooo.... ################     #################################  ..++oOOOOooo",
"OOoooo....+ ###############  #####################################  .o+oOOOOoooo",
"OOoooo....+ ##############  ######################################  .oooOOOOoooo",
"..Oo++o..oo #############  ########################  #############   ++ooO..O++o",
"...++++.ooo ############ ########################## ##############   +++o...++++",
"..+++++oooo ##########  ########################## ################  +++...+++++",
"..+++++oooo #########  ########################## #################  +++...+++++",
"...++++oooo ########  ########################## ############## ###  +++++..++++",
"..++++...oo #######  ########################## ############## ###  .+++++..+++o",
"OOOoooo.... ##    # ########################  #############  #####  ..oooOOOOooo",
"OOoooo....+  # ## # ####################### ############### ######  .oooOOOOoooo",
"OOoooo....++   #  # ###################### ##############  ######  ..oooOOOOoooo",
"..Oo++o..oo+  ## ## ####################  ############    #######  ..++ooO..O++o",
"...++++.oooo  # ## ############ ######  ###########   #  #######  o.++++o...++++",
"..+++++oooooo   ## ###########  ###   #             ###  ######  oo+++++...+++++",
"..+++++oooooo  ##  #######    ##     ###  #### #  ####  ####### ooo+++++...+++++",
"..++++.oooo++. #  #####   #     #  ####  #### #  ####  ####### ++oooo++++....+++",
"OOoooo....++++   ##### ### #####   ###  ####  # ###  # ###### +oooo....++oOOOOoo",
"Ooooo....+++++o  #### ### #####   #### ##### #  ## ## ######  oooo....o+oOOOOooo",
"Ooooo....++++++o  ##     ####   # ### ####  ## ## ## ######  +oooo....oooOOOOooo",
".Oo++o..oo++++..o      ####  ### #### #### ##    ### #####  o++oooo...++ooO..O++",
"..++++.oooo++....+         #### #### ##   ###  #### #####  o++++oooo.++++o...+++",
".+++++oooooo....+++  ######### ####     #### #####  ####  ++++++oooo+++++...++++",
".+++++oooooo....++++  ######## ##  #  ##### ###### ####  .++++++oooo+++++...++++",
".+++++ooooo.....++++++  ####  ## ### ##### ####   ####  ..++++++oooo+++++...++++",
"+++++oooooo....+++++++o                    ###  ###   ...++++++oooo+++++...+++++",
"+++++oooooo....+++++++oo                            .....++++++oooo+++++...+++++",
".++++.oooo++....+++++O.oooo++++..oo+OOOOoo+ooooo...o+....o+++++oooo.++++o...++++",
"Oo++o..oo++++..oo+++OO..oooo++...++++OO..+++ooo....++o..oooo++oooo...++ooO..O++o",
"oooo....++++++oooOOOO....oooo....++++...++++ooo...+++ooooo+++oooo....oooOOOOoooo",
"oooo....+++++ooooOOOO....oooo....o++...o++++oooo..++++ooo++++oooo....o+oOOOOoooo",
"Ooooo....++++ooooooOO.....oooo..oo.....oo++++oo+ooo++++oo+++++oooo....++oOOOOooo",
".++++.oooo++....+++++..oooo++++oooooOOOooooooo+++oooo....+++++++oooo++++....++++",
"+++++oooooo....+++++++oooooo+++ooooOOOOooooooo+++ooo.....+++++++ooo+++++...+++++",
"+++++oooooo....+++++++oooooo++++oooOOOOoooooooo++.oo.....++++++oooo+++++...+++++",
".++++.oooo++....+++++O.oooo++++..oo+OOOOoo+ooooo...o+....o+++++oooo.++++o...++++",
"Oo++o..oo++++..oo+++OO..oooo++...++++OO..+++ooo....++o..oooo++oooo...++ooO..O++o",
"oooo....++++++oooOOOO....oooo....++++...++++ooo...+++ooooo+++oooo....oooOOOOoooo"
};
