/* XPM */
static char *result[] = {
/* columns rows colors chars-per-pixel */
"80 80 8 1 ",
"  c black",
". c #417021",
"X c #D31D1D",
"o c #4A9417",
"O c #6EC035",
"+ c #6EAE42",
"@ c #FBF236",
"# c white",
/* pixels */
"OOOoooo....++++oooooOOO....oooo...........++++oooo..++++oo++++oooo....oooOOOOooo",
"OOoooo....+++++ooooOOO....oooo.....++....++++oooo..++++ooo+++oooo....oooOOOOoooo",
"OOoooo....++++++oooOOO....oooo....++++...++++ooo...+++ooooo++oooo....oooOOOOoooo",
"..Oo++o..oo++++..oo++OO..oooo++...++++OO..+++ooo....++o..ooo++oooo...++ooO..O++o",
"...++++.oooo++....++++O.oooo++++..oo+OOOOoo+ooooo...o+....o++++oooo.++++o...++++",
"..+++++oooooo....++++++oooooo++++oooOOOOoooooooo++.oo.....++   oooo+++++...+++++",
"..+++++oooooo....++++++oooooo+++ooooOOOOooooooo+++ooo....    X  ooo+++++...+++++",
"...++++.oooo++....++++..oooo++++oooooOOOooooooo+++oooo... XXXXX  ooo++++....++++",
"OOOoooo....++++oooooOO.....oooo..oo.....oo++++oo+ooo++++  XXXXXX o....++oOOOOooo",
"OOoooo....+++++ooooOOO....oooo....o++...o++++oooo..++++o XXXXXXXX ...o+oOOOOoooo",
"OOoooo....++++++oooOOO....oooo....++++...++++ooo...+++o  XXXXXXXX ...oooOOOOoooo",
"..Oo++o..oo++++..oo++OO..oooo++...++++OO..+++ooo....++   ##XXXXXX  ..++ooO..O++o",
"...++++.oooo++....++++O.oooo++++..oo+OOOOoo+ooooo...o   ######XXXX .++++o...++++",
"..+++++oooooo....++++++oooooo++++oooOOOOoooooooo++.o   ########XXX +++++...+++++",
"..+++++oooooo....++++++oooooo+++ooooOOOOooooooo+++oo  #####  ###XX +++++...+++++",
"...++++ooooo++....+++....ooo++++oooooOOOOoooooo+++oo  #####  ###XX o++++++..++++",
"..++++...oo++++..oo++....oooo+++.ooooOOOOOoo+oo++++   #########XXX  .+++++..+++o",
"OOOoooo....++++oooooO......oooo+..........++++oooo.  #########X@@@@@ .oooOOOOooo",
"OOoooo....+++++ooooOOO....oooo.....++....++++oooo..  #########X@@@@@ oooOOOOoooo",
"OOoooo....++++++oooOOO....oooo....++++...++++ooo...  #########XXXXX .oooOOOOoooo",
"..Oo++o..oo++++..oo++OO..oooo++...++++OO..+++ooo...  ##########XXXX .++ooO..O++o",
"...++++.oooo++....++++O.oooo++++..oo+OOOOoo+ooooo..  ##########XXX .++++o...++++",
"..+++++oooooo....++++++oooooo++++oooOOOOoooooooo++.  ###########XX   +++...+++++",
"..+++++oooooo....++++++oooooo+++ooooOOOOooooooo+++o  ############XXX +++...+++++",
"...++++.oooo++....++++..oooo++++oooooOOOooooooo+++o #############    +++....++++",
"OOOoooo....++++oooooOO.....oooo..oo.....oo++++oo+oo #############  ...++oOOOOooo",
"OOoooo....+++++ooo OOO....oooo....o++...o++++oooo.. #############  ..o+oOOOOoooo",
"OOoooo....++++++o  OOO....oooo....++++...++++ooo... #############  ..oooOOOOoooo",
"..Oo++o..oo++++.   ++OO..oooo++...++++OO..+++ooo..  #############  ..++ooO..O++o",
"...++++.oooo++.  #  ++O.oooo++++..oo+OOOOoo+ooooo  ##############  .++++o...++++",
"..+++++oooooo..  ## +++oooooo++++oooOOOOoooooo     ##############  +++++...+++++",
"..+++++oooooo. # ##  ++oooooo+++ooooOOOOooooo    ################  +++++...+++++",
"...++++..oo++ ## ###  ++oooo++++oooooOOOOo      #################  oo++++...++++",
"..ooo+...oo++ ## ####   +oo++++oooooooo       #################### oo+++++..++++",
"OOOoooo....+ ### ######                    ####################### ...oooOOOO+++",
"OOoooo....++ ### ########               ##########################  .oooOOOOoooo",
"OOoooo....++ #### ###########     ################################  .oooOOOOoooo",
"..Oo++o..oo ###### ###############################################  .++ooO..O++o",
"...++++.ooo ######  ############################################### ++++o...++++",
"..+++++oooo ########  ############################################  ++++...+++++",
"..+++++oooo ########## #########  ################################  ++++...+++++",
"...++++.ooo ################     #################################  ++++....++++",
"OOOoooo.... ###############  #####################################  ..++oOOOOooo",
"OOoooo....+ ##############  ######################################  .o+oOOOOoooo",
"OOoooo....+ #############  ########################  #############   oooOOOOoooo",
"..Oo++o..oo ############ ########################## ##############   ++ooO..O++o",
"...++++.ooo ##########  ########################## ################  +++o...++++",
"..+++++oooo #########  ########################## #################  +++...+++++",
"..+++++oooo ########  ########################## ############## ###  +++...+++++",
"...++++oooo #######  ########################## ############## ###  ++++++..++++",
"..++++...oo   ###   ########################## ############## ####  .+++++..+++o",
"OOOoooo.... ##    # ########################  #############  #####  ..oooOOOOooo",
"OOoooo....+  # ## # ####################### ############### ######  .oooOOOOoooo",
"OOoooo....++   #  # ###################### ##############  ######  ..oooOOOOoooo",
"..Oo++o..oo+  ## ## ####################  ############    #######  ..++ooO..O++o",
"...++++.oooo  # ## ############ ######  ###########   #  #######  o.++++o...++++",
"..+++++oooooo   ## ###########  ###   #             ###  ######  oo+++++...+++++",
"..+++++oooooo  ##  #######    ##     ###  #### #  ####  ####### ooo+++++...+++++",
"..++++.oooo++. #  #####   #     #  ####  #### #  ####  ####### ++oooo++++....+++",
"OOoooo....++++   ##### ### #####   ###  ####  # ###  # ###### +oooo....++oOOOOoo",
"Ooooo....+++++o  #### ### #####   #### ##### #  ## ## ######  oooo....o+oOOOOooo",
"Ooooo....++++++o  ##     ####   # ### ####  ## ## ## ######  +oooo....oooOOOOooo",
".Oo++o..oo++++..o      ####  ### #### #### ##    ### #####  o++oooo...++ooO..O++",
"..++++.oooo++....+         #### #### ##   ###  #### #####  o++++oooo.++++o...+++",
".+++++oooooo....+++  ######### ####     #### #####  ####  ++++++oooo+++++...++++",
".+++++oooooo....++++  ######## ##  #  ##### ###### ####  .++++++oooo+++++...++++",
".+++++ooooo.....++++++  ####  ## ### ##### ####   ####  ..++++++oooo+++++...++++",
"+++++oooooo....+++++++o                    ###  ###   ...++++++oooo+++++...+++++",
"+++++oooooo....+++++++oo                            .....++++++oooo+++++...+++++",
".++++.oooo++....+++++O.oooo++++..oo+OOOOoo+ooooo...o+....o+++++oooo.++++o...++++",
"Oo++o..oo++++..oo+++OO..oooo++...++++OO..+++ooo....++o..oooo++oooo...++ooO..O++o",
"oooo....++++++oooOOOO....oooo....++++...++++ooo...+++ooooo+++oooo....oooOOOOoooo",
"oooo....+++++ooooOOOO....oooo....o++...o++++oooo..++++ooo++++oooo....o+oOOOOoooo",
"Ooooo....++++ooooooOO.....oooo..oo.....oo++++oo+ooo++++oo+++++oooo....++oOOOOooo",
".++++.oooo++....+++++..oooo++++oooooOOOooooooo+++oooo....+++++++oooo++++....++++",
"+++++oooooo....+++++++oooooo+++ooooOOOOooooooo+++ooo.....+++++++ooo+++++...+++++",
"+++++oooooo....+++++++oooooo++++oooOOOOoooooooo++.oo.....++++++oooo+++++...+++++",
".++++.oooo++....+++++O.oooo++++..oo+OOOOoo+ooooo...o+....o+++++oooo.++++o...++++",
"Oo++o..oo++++..oo+++OO..oooo++...++++OO..+++ooo....++o..oooo++oooo...++ooO..O++o",
"oooo....++++++oooOOOO....oooo....++++...++++ooo...+++ooooo+++oooo....oooOOOOoooo"
};
