/* XPM */
static char *result[] = {
/* columns rows colors chars-per-pixel */
"80 80 7 1 ",
"  c #1B0F18",
". c #417021",
"X c #4A9417",
"o c #6EC035",
"O c #6EAE42",
"+ c #E4945E",
"@ c white",
/* pixels */
"oooXXXX....OOOOXXXXXooo....XXXX...........OOOOXXXX..OOOOXXOOOOXXXX....XXXooooXXX",
"ooXXXX....OOOOOXXXXooo....XXXX.....OO....OOOOXXXX..OOOOXXXOOOXXXX....XXXooooXXXX",
"ooXXXX....OOOOOOXXXooo....XXXX....OOOO...OOOOXXX...OOOXXXXXOOXXXX....XXXooooXXXX",
"..oXOOX..XXOOOO..XXOOoo..XXXXOO...OOOOoo..OOOXXX....OOX..XXXOOXXXX...OOXXo..oOOX",
"...OOOO.XXXXOO....OOOOo.XXXXOOOO..XXOooooXXOXXXXX...XO....XOOOOXXXX.OOOOX...OOOO",
"..OOOOOXXXXXX....OOOOOOXXXXXXOOOOXXXooooXXXXXXXXOO.XX.....OOOOOXXXXOOOOO...OOOOO",
"..OOOOOXXXXXX....OOOOOOXXXXXXOOOXXXXooooXXXXXXXOOOXXX.....OOOOOOXXXOOOOO...OOOOO",
"...OOOO.XXXXOO....OOOO..XXXXOOOOXXXXXoooXXXXXXXOOOXXXX....OOOOOOXXXXOOOO....OOOO",
"oooXXXX....OOOOXXXXXoo.....XXXX..XX.....XXOOOOXXOXXXOOOOXXOOOOXXXX....OOXooooXXX",
"ooXXXX....OOOOOXXXXooo....XXXX....XOO...XOOOOXXXX..OOOOXXXOOOXXXX....XOXooooXXXX",
"ooXXXX....OOOOOOXXXooo....XXXX....OOOO...OOOOXXX...OOOXXXXXOOXXXX....XXXooooXXXX",
"..oXOOX..XXOOOO..XXOOoo..XXXXOO...OOOOoo..OOOXXX....OOX..XXXOOXXXX...OOXXo..oOOX",
"...OOOO.XXXXOO....OOOOo.XXXXOOOO..XXOooooXXOXXXXX...XO....XOOOOXXXX.OOOOX...OOOO",
"..OOOOOXXXXXX....OOOOOOXXXXXXOOOOXXXooooXXXXXXXXOO.XX.....OOOOOXXXXOOOOO...OOOOO",
"..OOOOOXXXXXX....OOOOOOXXXXXXOOOXXXXooooXXXXXXXOOOXXX.....OOOOOXXXXOOOOO...OOOOO",
"...OOOOXXXXXOO....OOO....XXXOOOOXXXXXooooXXXXXXOOOXXXX......OOOOXXXXOOOOOO..OOOO",
"..OOOO...XXOOOO..XXOO....XXXXOOO.XXXXoooooXXOXXOOOOXXXX.....OOOOOXX..OOOOO..OOOX",
"oooXXXX....OOOOXXXXXo......XXXXO..........OOOOXXXX..OOOOXXOOOOXXXX....XXXooooXXX",
"ooXXXX....OOOOOXXXXooo....XXXX.....OO....OOOOXXXX..OOOOXXXOOOXXXX....XXXooooXXXX",
"ooXXXX....OOOOOOXXXooo....XXXX....OOOO...OOOOXXX...OOOXXXXXOOXXXX....XXXooooXXXX",
"..oXOOX..XXOOOO..XXOOoo..XXXXOO...OOOOoo..OOOXXX....OOX..XXXOOXXXX...OOXXo..oOOX",
"...OOOO.XXXXOO....OOOOo.XXXXOOOO..XXOooooXXOXXXXX...    ..XOOOOXXXX.OOOO   .OOOO",
"..OOOOOXXXXXX....OOOOOOXXXXXXOOOOXXXooooXXXXXXXXOO.X  ++    OOOXXXXO    ++ OOOOO",
"..OOOOOXXXXXX....OOOOOOXXXXXXOOOXXXXooooXXXXXXXOOOXXX  + ++  OOOXXX  ++++  OOOOO",
"...OOOO.XXXXOO....OOOO..XXXXOOOOXXXXXoooXXXXXXXOOOXXXX  + ++ OOOXX  ++ ++ ..OOOO",
"oooXXXX....OOOOXXXXXoo.....XXXX..XX.....XXOOOOXXOXXXOOO +  +  XXX  +   +  oooXXX",
"ooXXXX....OOOOOXXXXooo....XXXX....XOO...XOOOOXXXX..OOOO  ++++     ++ +++ oooXXXX",
"ooXXXX....OOOOOOXXXooo....XXXX....OOOO...OOOOXXX...OOOXX +++++++++++++   oooXXXX",
"..oXOOX..XXOOOO..XXOOoo..XXXXOO...OOOOoo..OOOXXX....OOX. +++++++++++++   o..oOOX",
"...OOOO.XXXXOO....OOOOo.XXXXOOOO..XXOooooXXOXXXXX...XO..  ++++++++++++ OX...OOOO",
"..OOOOOXXXXXX....OOOOOOXXXXXXOOOOXXXooooXXXXXXXXOO.XX.... +++++++++++  O...OOOOO",
"..OOOOOXXXXXX....OOOOOOXXXXXXOOOXXXXooooXXXXXXXOOOXXX.... +++++++++++  O...OOOOO",
"...OOOO..XXOOO....OOOOOOXXXXOOOOXXXXXooooXXXXXX      X..  + +++++++ ++  O.     O",
"..XXXO...XXOOOO..OOOOOOOOXXOOOOXXXXXXXXoXXXXXXXXXOO     +++   +++   +++    .OOOO",
"oooXXXX....OOOOXXXXXooo....XXXX...........OOOOXXXX  @@@@+++++++++++++++@@@   OOO",
"ooXXXX....OOOOOXXXXooo....XXXX.....OO....OOOOXXXX.  @@@@@@+++@@@@@+++@@@@@@@ XXX",
"ooXXXX....OOOOOOXXXooo....XXXX....OOOO...OOOOXXX      @@@@@@@@@@@@@@@@@@@@@@ XXX",
"..oXOOX..XXOOOO..XXOOoo..XXXXOO...OOOOoo..OOOXX  ...O   @@@@@@   @@@@@@@@@  oOOX",
"...OOOO.XXXXOO....OOOOo.XXXXOOOO..XXOooooXXOXXXXX...XO. @@@@@@@ @@@@@@@@     OOO",
"..OOOOOXXXXXX....OOOOOOXXXXXXOOOOXXXooooXXXXXXXXO       @@@@@@@@@@@@@@   ..OO OO",
"..OOOOOXXXXXX....OOOOOOXXXXX                      +++++++@@@@@@@@@@@@  O...OO  O",
"...OOOO.XXXXOO....OOOO..XX  +++++++++++++++++++++++++++++++@@@@@@@@@@  O....OOOO",
"oooXXXX....OOOOXXXXXo      ++++++++++++++++++++++++++++++++++@@@@@@@@@ OXooooXXX",
"ooXXXX....OOOOOXXXXo  ++++++++++++++++++++++++++++++++++++++++@@@@@@@@ XooooXXXX",
"ooXXXX....OOOOOOX   ++++++++++++++++++++++++++++++++++++++++++@@@@@@@@ XooooXXXX",
"..oXOOX..XXOOOO..   ++++++++++++++++++++++++++++++++++++++++++@@@@@@@@ XXo..oOOX",
"...OOOO.XXXXO    +++++++++++++++++++++++++++++++++++++++++++++@@@@@@@ OOX...OOOO",
"..OOOOOXXXX  +++++++++++++++++++++++++++++++++++++++++++++++++@@@@@@@ OO...OOOOO",
"..OOOOOXXX  +++++++++++++++++++++++++++++++++++++++++++++++++@@@@@@@@ OO...OOOOO",
"...OOOOXX  ++++++++++++++++++++++++++++@@@@@@@@@@@@++++++++++@@@@@@@  OOOO..OOOO",
"..OOOO.   @+++++++++++++++++++++++++++@  @@@@@@@@@@@@@@++++++@@@@@@+ OOOOO..OOOX",
"oooXXX  @@@@@+++++++++++ ++++++++++++@ .. @@@@@@@@@@@@@@@+++++@  +++ .XXXooooXXX",
"ooXXX  @@@@@@++++++++++  ++++++++++++  ..         @@@@@@@++++++  +++ XXXooooXXXX",
"ooXX  @@@@@@@@++++++++   +++++++++++++ ..OOOOXXX  @@@@@@@@+++++   ++ XXXooooXXXX",
"..  @@@@@@@@@@++++++++   +++++++++++   o..OOOXXX.     @@@@+++++ X +++ OXXo..oOOX",
".. @@@@@@@@@@@@+++++   . +++++++++++  oooXXOXXXXX...X      ++++ XX ++ OOX...OOOO",
". @@@@@@@@@@@@@@+++  OO  +++++   ++  oooXXXXXXXXOO.XX..... ++++ XX    OO...OOOOO",
". @@@@@@@@@@@@@@++  OO  +++++  O ++ ooooXXXXXXXOOOXXX.....O     XX    OO...OOOOO",
". @@@@@@@@@@@@@@   OO  +++++  OO ++ XoooXXXXXXXOOOXXXX....O     OX    OOO....OOO",
"o @@@@@@@@@@@@   XXXo ++++++ XX.    ....XXOOOOXXOXXXOOOOXXOO     XX   .OOXooooXX",
"o @@@@@@@     XXXXXoo       XX..     ...XOOOOXXXX..OOOOXXXOO     X.    OXooooXXX",
"o   @@   OOOOOOXXXXoo       XX..     O...OOOOXXX...OOOXXXXXX     X.    XXooooXXX",
".oXO  ..XXOOOO..XXXOOo     XXOO..    Ooo..OOOXXX....OOX..XXXX    XX    OXXo..oOO",
"..OO  .XXXXOO....OOOOO     XOOOO.    ooooXXOXXXXX...XO....XXO    XX    OOX...OOO",
".OOOOOXXXXXX....OOOOOO      XOOOOX    ooXXXXXXXXOO.XX.....OOO    XXX    O...OOOO",
".OOOOOXXXXXX....OOOOOO      OOOOXXX    oXXXXXXXOOOXXXX....OOO     XX    O...OOOO",
".OOOOOXXXXX.....OOOOOOX      OOXXXX    oXXXXXXOOOXXXX.....OOOO    XXO   O...OOOO",
"OOOOOXXXXXX....OOOOOOOXXX     OXXXXo    XXXXXXOOOXXX.....OOOOO     OOO   ..OOOOO",
"OOOOOXXXXXX....OOOOOOOXXXX     OXXXoo    XXXXXXOO.XX.....OOOOOO    OOO   ..OOOOO",
".OOOO.XXXXOO....OOOOOo.XXXX     .XXOo    XOXXXXX...XO....XOOOOO    .OO    ..OOOO",
"oXOOX..XXOOOO..XXOOOoo..XXXXOO...OOOOoo..OOOXXX....OOX..XXXXOOXXXX...OOXXo..oOOX",
"XXXX....OOOOOOXXXoooo....XXXX....OOOO...OOOOXXX...OOOXXXXXOOOXXXX....XXXooooXXXX",
"XXXX....OOOOOXXXXoooo....XXXX....XOO...XOOOOXXXX..OOOOXXXOOOOXXXX....XOXooooXXXX",
"oXXXX....OOOOXXXXXXoo.....XXXX..XX.....XXOOOOXXOXXXOOOOXXOOOOOXXXX....OOXooooXXX",
".OOOO.XXXXOO....OOOOO..XXXXOOOOXXXXXoooXXXXXXXOOOXXXX....OOOOOOOXXXXOOOO....OOOO",
"OOOOOXXXXXX....OOOOOOOXXXXXXOOOXXXXooooXXXXXXXOOOXXX.....OOOOOOOXXXOOOOO...OOOOO",
"OOOOOXXXXXX....OOOOOOOXXXXXXOOOOXXXooooXXXXXXXXOO.XX.....OOOOOOXXXXOOOOO...OOOOO",
".OOOO.XXXXOO....OOOOOo.XXXXOOOO..XXOooooXXOXXXXX...XO....XOOOOOXXXX.OOOOX...OOOO",
"oXOOX..XXOOOO..XXOOOoo..XXXXOO...OOOOoo..OOOXXX....OOX..XXXXOOXXXX...OOXXo..oOOX",
"XXXX....OOOOOOXXXoooo....XXXX....OOOO...OOOOXXX...OOOXXXXXOOOXXXX....XXXooooXXXX"
};
