/* XPM */
static char *result[] = {
/* columns rows colors chars-per-pixel */
"80 80 7 1 ",
"  c #1B0F18",
". c #417021",
"X c #4A9417",
"o c #6EC035",
"O c #6EAE42",
"+ c #E4945E",
"@ c white",
/* pixels */
"oooXXXX....OOOOXXXXXooo....XXXX...........OOOOXXXX..OOOOXXOOOOXXXX....XXXooooXXX",
"ooXXXX....OOOOOXXXXooo....XXXX.....OO....OOOOXXXX..OOOOXXXOOOXXXX....XXXooooXXXX",
"ooXXXX....OOOOOOXXXooo....XXXX....OOOO...OOOOXXX...OOOXXXXXOOXXXX....XXXooooXXXX",
"..oXOOX..XXOOOO..XXOOoo..XXXXOO...OOOOoo..OOOXXX....OOX..XXXOOXXXX...OOXXo..oOOX",
"...OOOO.XXXXOO....OOOOo.XXXXOOOO..XXOooooXXOXXXXX...XO....XOOOOXXXX.OOOOX...OOOO",
"..OOOOOXXXXXX....OOOOOOXXXXXXOOOOXXXooooXXXXXXXXOO.XX.....OOOOOXXXXOOOOO...OOOOO",
"..OOOOOXXXXXX....OOOOOOXXXXXXOOOXXXXooooXXXXXXXOOOXXX.....OOOOOOXXXOOOOO...OOOOO",
"...OOOO.XXXXOO....OOOO..XXXXOOOOXXXXXoooXXXXXXXOOOXXXX....OOOOOOXXXXOOOO....OOOO",
"oooXXXX....OOOOXXXXXoo.....XXXX..XX.....XXOOOOXXOXXXOOOOXXOOOOXXXX....OOXooooXXX",
"ooXXXX....OOOOOXXXXooo....XXXX....XOO...XOOOOXXXX..OOOOXXXOOOXXXX....XOXooooXXXX",
"ooXXXX....OOOOOOXXXooo....XXXX....OOOO...OOOOXXX...OOOXXXXXOOXXXX....XXXooooXXXX",
"..oXOOX..XXOOOO..XXOOoo..XXXXOO...OOOOoo..OOOXXX....OOX..XXXOOXXXX...OOXXo..oOOX",
"...OOOO.XXXXOO....OOOOo.XXXXOOOO..XXOooooXXOXXXXX...XO....XOOOOXXXX.OOOOX...OOOO",
"..OOOOOXXXXXX....OOOOOOXXXXXXOOOOXXXooooXXXXXXXXOO.XX.....OOOOOXXXXOOOOO...OOOOO",
"..OOOOOXXXXXX....OOOOOOXXXXXXOOOXXXXooooXXXXXXXOOOXXX.....OOOOOXXXXOOOOO...OOOOO",
"...OOOOXXXXXOO....OOO....XXXOOOOXXXXXooooXXXXXXOOOXXXX......OOOOXXXXOOOOOO..OOOO",
"..OOOO...XXOOOO..XXOO....XXXXOOO.XXXXoooooXXOXXOOOOXXXX.....OOOOOXX..OOOOO..OOOX",
"oooXXXX....OOOOXXXXXo......XXXXO..........OOOOXXXX..OOOOXXOOOOXXXX....XXXooooXXX",
"ooXXXX....OOOOOXXXXooo....XXXX.....OO....OOOOXXXX..OOOOXXXOOOXXXX....XXXooooXXXX",
"ooXXXX....OOOOOOXXXooo....XXXX....OOOO...OOOOXXX...OOOXXXXXOOXXXX....XXXooooXXXX",
"..oXO   .XXOOOO..XXOOoo.    XOO...OOOOoo..OOOXXX....OOX..XXXOOXXXX...OOXXo..oOOX",
"...OO ++    OO....OO    ++  OOOO..XXOooooXXOXXXXX...XO....XOOOOXXXX.OOOOX...OOOO",
"..OOO  ++++  ....OO  ++ +  XXOOOOXXXooooXXXXXXXXOO.XX.....OOOOOXXXXOOOOO...OOOOO",
"..OOOO ++ ++  ...OO ++ +  XXXOOOXXXXooooXXXXXXXOOOXXX.....OOOOOOXXXOOOOO...OOOOO",
"...OOO  +   +  ...  +  + XXXOOOOXXXXXoooXXXXXXXOOOXXXX....OOOOOOXXXXOOOO....OOOO",
"oooXXXX +++ ++     ++++  ..XXXX..XX.....XXOOOOXXOXXXOOOOXXOOOOXXXX....OOXooooXXX",
"ooXXXX.   +++++++++++++ ..XXXX....XOO...XOOOOXXXX..OOOOXXXOOOXXXX....XOXooooXXXX",
"ooXXXX.   ++++++++++++  ..XXXX....OOOO...OOOOXXX...OOOXXXXXOOXXXX....XXXooooXXXX",
"..oXOOX.. ++++++++++++  .XXXXOO...OOOOoo..OOOXXX....OOX..XXXOOXXXX...OOXXo..oOOX",
"...OOOO.X  +++++++++++ .XXXXOOOO..XXOooooXXOXXXXX...XO....XOOOOXXXX.OOOOX...OOOO",
"..OOOOOXX  +++++++++++ XXXXXXOOOOXXXooooXXXXXXXXOO.XX.....OOOOOXXXXOOOOO...OOOOO",
".     OX  ++ +++++++ +  XXX      XXXooooXXXXXXXOOOXXX.....OOOOXXXXXOOOOO...OOOOO",
"...OO    +++   +++   +++     OOOXXXXXooooXXXXXXOOOXXXX.....OOXXXXXXXXOOOO...OOOO",
"..X   @@@+++++++++++++++@@@@  OXXXXXXXXoXXXXXXXXXOOXXXX.....OXXXXXXXXOOOOO..OOOO",
"ooo @@@@@@@+++@@@@@+++@@@@@@  X...........OOOOXXXX..OOOOX..OOXXXXX....XXXooooOOO",
"ooX @@@@@@@@@@@@@@@@@@@@@@      ...OO....OOOOXXXX..OOOOXXXOOOXXXX....XXXooooXXXX",
"ooXX  @@@@@@@@@   @@@@@@   XXX.  .OOOO...OOOOXXX...OOOXXXXXOOXXXX....XXXooooXXXX",
"..o     @@@@@@@@ @@@@@@@ XXXXOO...OOOOoo..OOOXXX....OOX..XXXOOXXXX...OOXXo..oOOX",
".. OOOO   @@@@@@@@@@@@@@       O..XXOooooXXOXXXXX...XO....XOOOOXXXX.OOOOX...OOOO",
".  OOOOXX  @@@@@@@@@@@@+++++++                      X.....OOOOOXXXXOOOOO...OOOOO",
"..OOOOOXX  @@@@@@@@@@+++++++++++++++++++++++++++++++     .OOOOOOXXXOOOOO...OOOOO",
"...OOOO.X @@@@@@@@@+++++++++++++++++++++++++++++++++++++    OOOOXXXXOOOO....OOOO",
"oooXXXX.. @@@@@@@@+++++++++++++++++++++++++++++++++++++++++  OXXXX....OOXooooXXX",
"ooXXXX... @@@@@@@@+++++++++++++++++++++++++++++++++++++++++++  XX....XOXooooXXXX",
"ooXXXX...  @@@@@@@++++++++++++++++++++++++++++++++++++++++++++  X....XXXooooXXXX",
"..oXOOX..X @@@@@@@++++++++++++++++++++++++++++++++++++++++++++++   ..OOXXo..oOOX",
"...OOOO.XX @@@@@@@++++++++++++++++++++++++++++++++++++++++++++++   .OOOOX...OOOO",
"..OOOOOXXX @@@@@@@++++++++++++++++++++++++++++++++++++++++++++++++  OOOO...OOOOO",
"..OOOOOXXX @@@@@@@@+++++++++++++++++++++++++++++++++++++++++++++++++  OO...OOOOO",
"...OOOOXXX  @@@@@@@++++++++++@@@@@@@@@@@@++++++++++++++++++++++++++++  OOO..OOOO",
"..OOOO...XX +@@@@@@++++++@@@@@@@@@@@@@@  @+++++++++++++ ++++++++++++++  OO..OOOX",
"oooXXXX.... +++  @+++++@@@@@@@@@@@@@@@ .. @++++++++++++  +++++++++++++@   oooXXX",
"ooXXXX....O +++  ++++++@@@@@@@         ..  ++++++++++++  +++++++++++@@@@@  oXXXX",
"ooXXXX....O ++   +++++@@@@@@@@  ..OOOO... +++++++++++++   +++++++++@@@@@@@  XXXX",
"..oXOOX..X +++ . +++++@@@@     ...OOOOoo.   +++++++++++ . ++++++++@@@@@@@@@ oOOX",
"...OOOO.XX ++ .. ++++      XOOOO..XXOooooX  +++++++++++ ..  +++++@@@@@@@@@@  OOO",
"..OOOOOXXX    .. ++++ OXXXXXXOOOOXXXooooXXX  ++   +++++  .O  +++@@@@@@@@@@@@  OO",
"..OOOOOXXX    ..     OOXXXXXXOOOXXXXooooXXXX ++ O  +++++  OO  ++@@@@@@@@@@@@@ OO",
"..OOOO.XXX    ..     O..XXXXOOOOXXXXXoooXXXX ++ OO  +++++  OO   @@@@@@@@@@@@@@ O",
"ooXXXX....   OX     oo.....XXXX..XX.....XXOO    OXX ++++++ OOOO   @@@@@@@@@@@@ X",
"oXXXX....    OX     oo....XXXX....XOO...XOO     X..O       OOOXXX   @@@@@@@@@@ X",
"oXXXX....    OO     oo....XXXX....OOOO...OO     ...O       XOOXXXX.    @@@@@@@ X",
".oXOOX..X    O.    OOoo..XXXXOO...OOOOoo..O    X....O     XXXOOXXXX...O   @@@@ O",
"..OOOO.X    O..    OOOo.XXXXOOOO..XXOooooX    XXX...      XXOOOOXXXX.OOOOX     O",
".OOOOOXX    ..     OOOOXXXXXXOOOOXXXooooX    XXXOO.X      OOOOOOXXXXOOOOO...OOOO",
".OOOOOXX    ..     OOOOXXXXXOOOOXXXXooooX    XXOOOXX      OOOOOOXXXXOOOOO...OOOO",
".OOOOOXX   ...    OOOOXXXXXOOOOXXXXXooooX    XOOOXX      .OOOOOOXXXXOOOOO...OOOO",
"OOOOOXX   X..     OOOOXXXXXXOOOXXXXooooX    XXOOOX     ..OOOOOOXXXXOOOOO...OOOOO",
"OOOOOXX   X..    OOOOOXXXXXXOOOOXXXoooo    XXXXOO     ...OOOOOOXXXXOOOOO...OOOOO",
".OOOO.    OO.    OOOOo.XXXXOOOO..XXOooo    XXXXX     ....XOOOOOXXXX.OOOOX...OOOO",
"oXOOX..XXOOOO..XXOOOoo..XXXXOO...OOOOoo..OOOXXX....OOX..XXXXOOXXXX...OOXXo..oOOX",
"XXXX....OOOOOOXXXoooo....XXXX....OOOO...OOOOXXX...OOOXXXXXOOOXXXX....XXXooooXXXX",
"XXXX....OOOOOXXXXoooo....XXXX....XOO...XOOOOXXXX..OOOOXXXOOOOXXXX....XOXooooXXXX",
"oXXXX....OOOOXXXXXXoo.....XXXX..XX.....XXOOOOXXOXXXOOOOXXOOOOOXXXX....OOXooooXXX",
".OOOO.XXXXOO....OOOOO..XXXXOOOOXXXXXoooXXXXXXXOOOXXXX....OOOOOOOXXXXOOOO....OOOO",
"OOOOOXXXXXX....OOOOOOOXXXXXXOOOXXXXooooXXXXXXXOOOXXX.....OOOOOOOXXXOOOOO...OOOOO",
"OOOOOXXXXXX....OOOOOOOXXXXXXOOOOXXXooooXXXXXXXXOO.XX.....OOOOOOXXXXOOOOO...OOOOO",
".OOOO.XXXXOO....OOOOOo.XXXXOOOO..XXOooooXXOXXXXX...XO....XOOOOOXXXX.OOOOX...OOOO",
"oXOOX..XXOOOO..XXOOOoo..XXXXOO...OOOOoo..OOOXXX....OOX..XXXXOOXXXX...OOXXo..oOOX",
"XXXX....OOOOOOXXXoooo....XXXX....OOOO...OOOOXXX...OOOXXXXXOOOXXXX....XXXooooXXXX"
};
