/* XPM */
static char *result[] = {
/* columns rows colors chars-per-pixel */
"80 80 8 1 ",
"  c black",
". c #417021",
"X c #50575B",
"o c #4A9417",
"O c #6ABE30",
"+ c #6EC035",
"@ c #6EAE42",
"# c #9BADB7",
/* pixels */
"+++oooo....@@@@ooooo+++....oooo...........@@@@oooo..@@@@oo@@@@oooo....ooo++++ooo",
"++oooo....@@@@@oooo+++....oooo.....@@....@@@@oooo..@@@@ooo@@@oooo....ooo++++oooo",
"++oooo....@@@@@@ooo+++....oooo....@@@@...@@@@ooo...@@@ooooo@@oooo....ooo++++oooo",
"..+o@@o..oo@@@@..oo@@++..oooo@@...@@@@++..@@@ooo....@@o..ooo@@oooo...@@oo+..+@@o",
"...@@@@.oooo@@....@@@@+.oooo@@@@..oo@++++oo@ooooo...o@....o@@@@oooo.@@@@o...@@@@",
"..@@@@@oooooo....@@@@@@oooooo@@@@ooo++++oooooooo@@.oo.....@@@@@oooo@@@@@...@@@@@",
"..@@@@@oooooo....@@@@@@oooooo@@@oooo++++ooooooo@@@ooo.....@@@@@@ooo@@@@@...@@@@@",
"...@@@@.oooo@@....@@@@..oooo@@@@ooooo+++ooooooo@@@oooo....@@@@@@oooo@@@@....@@@@",
"+++oooo....@@@@ooooo++.....oooo..oo.....oo@@@@oo@ooo@@@@oo@@@@oooo....@@o++++ooo",
"++oooo....@@@@@oooo+++....oooo....o@@...o@@@@oooo..@@@@ooo@@@oooo....o@o++++oooo",
"++oooo....@@@@@@ooo+++....oooo....@@@@...@@@@ooo...@@@ooooo@@oooo....ooo++++oooo",
"..+o@@o..oo@@@@..oo@@++..oooo@@...@@@@++.#@@@ooo....@@o..ooo@@oooo...@@oo+..+@@o",
"...@@@@.oooo@@....@@@@+.oooo@@@@..oo@+++##o@ooooo...o@....o@@@@oooo.@@@@o...@@@@",
"..@@@@@oooooo....@@@@@####ooo@@@@ooo++++###ooooo@@.oo.....@@@@@oooo@@@@@...@@@@@",
"..@@@@@oooooo....@@@@##   ######oooo+++#X##oooo@@@ooo.....@@@@@oooo@@@@@...@@@@@",
"...@@@@ooooo@@....@@@..##      ###ooo##XXX#oooo@@@##oo......@@@@oooo@@@@@@..@@@@",
"..@@@@...oo@@@@..oo@@...#        #####XX X##@oo@@###ooo.....@@@@@oo..@@@@@..@@@o",
"+++oooo....@@@@ooooo+...## XXXXXXXXXXX   XX##@###XX#@@@@oo@@@@oooo....ooo++++ooo",
"++oooo....@@@@@oooo+++...#XX        X     XX###XXXXX#@@ooo@@@oooo....ooo++++oooo",
"++oooo....@@@@@@ooo+++..#XX                 XXXXX XXX#ooooo@@oooo....ooo++++oooo",
"..+o@@o..oo@@@@.##o@@+##XX                          XX##.ooo@@oooo...@@oo+..+@@o",
"...@@@@.oooo@@..#######XX                            XX##.o@@@@oooo.@@@@o...@@@@",
"..@@@@@oooooo....##   XX                              XX##@@@@@oooo@@@@@...@@@@@",
"..@@@@@oooooo....@#   X                                XX##@@@@@ooo@@@@@...@@@@@",
"...@@@@.oooo@@....#                                    XXX#@@@@@oooo@@@@....@@@@",
"+++oooo....@@@@ooo#                                     XX#@@@oooo....@@o++++ooo",
"++oooo....@@@@@ooo#                                      XXX#oooo....o@o++++oooo",
"++oooo....@@@@@@oo#                                        XXX####...ooo++++oooo",
"..+o@@o..o#######o#                                          XXX##...@@oo+..+@@o",
"...@@@@.o##      ##                                           X##oo.@@@@o...@@@@",
"..@@@@@o###XXX    #                                           X#ooo@@@@@...@@@@@",
"..@@@@@ooo###XXXX                                            X#oooo@@@@@...@@@@@",
"...@@@@..oo@@###XX                                          XX#oooooo@@@@...@@@@",
"..ooo@...oo@@@@.#X                                          X#ooooooo@@@@@..@@@@",
"+++oooo....@@@@oXX                                          Xooooo....ooo++++@@@",
"++oooo....@@@@@#X                                          X#oooo....ooo++++oooo",
"++oooo....@@@@@XX                                          X#oooo....ooo++++oooo",
"..+o@@o..oo@@@#X                                           X#@oooo...@@oo+..+@@o",
"...@@@@.oooo###X                                            X#@oooo.@@@@o...@@@@",
"..@@@@@ooooo#  ##                                           XX######@@@@...@@@@@",
"..@@@@@oooo## ###X                                                 ##@@@...@@@@@",
"...@@@@.ooo# ##..XX                                              ##o@@@@....@@@@",
"+++oooo....###@oo#X                                            ###....@@o++++ooo",
"++oooo....@#@@@oo#X                                         XX##o....o@o++++oooo",
"++oooo....@@@@@@o#X                                        XX#ooo....ooo++++oooo",
"..+o@@o..oo@@@@..#X                                       XX#@oooo...@@oo+..+@@o",
"...@@@@.oooo@@...#X                                      XX##@@oooo.@@@@o...@@@@",
"..@@@@@oooooo....#X                                      X##@@@oooo@@@@@...@@@@@",
"..@@@@@oooooo....#X                                      X#@@@@oooo@@@@@...@@@@@",
"...@@@@ooooo@@...XX                                     XX#.@@@@oooo@@@@@@..@@@@",
"..@@@@...oo@@@@.#XXXXXX                                XX #.@@@@@oo..@@@@@..@@@o",
"+++oooo....@@@@o#XX###XXXX                           XX   #@@@oooo....ooo++++ooo",
"++oooo....@@@@@o###++####XXX                     XXXXX    ##@oooo....ooo++++oooo",
"++oooo....@@@@###oo+++...##X                  XXX          #@oooo....ooo++++oooo",
"..+o@@o..oo@@@@..oo@@++..o#           XX  XXX################@oooo...@@oo+..+@@o",
"...@@@@.oooo@@....@@@@+.oo#       XXXXXXXX ###ooo...o@....o##@@oooo.@@@@o...@@@@",
"..@@@@@oooooo....@@@@@@ooo#      XX##   ####oooo@@.oo.....@@##@oooo@@@@@...@@@@@",
"..@@@@@oooooo....@@@@@@ooo#      X#o#   #oooooo@@@ooo.....@@@@@@ooo@@@@@...@@@@@",
"..@@@@.oooo@@....@@@@@..o#      XX#oo#  #oooooo@@@oooo....@@@@@@@oooo@@@@....@@@",
"++oooo....@@@@oooooo++...#      X##...###o@@@@oo@ooo@@@@oo@@@@@oooo....@@o++++oo",
"+oooo....@@@@@ooooo+++..#       X#o@@..##@@@@oooo..@@@@ooo@@@@oooo....o@o++++ooo",
"+oooo....@@@@@@oooo+++..#     XXX#@@@@.##@@@@ooo...@@@oooooo@@oooo....ooo++++ooo",
".+o@@o..oo@@@@..ooo@@++.#   XXO##.@@@@++#.@@@ooo....@@o..oooo@@oooo...@@oo+..+@@",
"..@@@@.oooo@@....@@@@@+.#  X###@..oo@++++oo@ooooo...o@....oo@@@@oooo.@@@@o...@@@",
".@@@@@oooooo....@@@@@@@o# ###@@@@ooo++++oooooooo@@.oo.....@@@@@@oooo@@@@@...@@@@",
".@@@@@oooooo....@@@@@@@o##oo@@@@oooo++++ooooooo@@@oooo....@@@@@@oooo@@@@@...@@@@",
".@@@@@ooooo.....@@@@@@oo##o@@@@ooooo++++oooooo@@@oooo.....@@@@@@oooo@@@@@...@@@@",
"@@@@@oooooo....@@@@@@@ooo#oo@@@oooo++++ooooooo@@@ooo.....@@@@@@oooo@@@@@...@@@@@",
"@@@@@oooooo....@@@@@@@oooooo@@@@ooo++++oooooooo@@.oo.....@@@@@@oooo@@@@@...@@@@@",
".@@@@.oooo@@....@@@@@+.oooo@@@@..oo@++++oo@ooooo...o@....o@@@@@oooo.@@@@o...@@@@",
"+o@@o..oo@@@@..oo@@@++..oooo@@...@@@@++..@@@ooo....@@o..oooo@@oooo...@@oo+..+@@o",
"oooo....@@@@@@ooo++++....oooo....@@@@...@@@@ooo...@@@ooooo@@@oooo....ooo++++oooo",
"oooo....@@@@@oooo++++....oooo....o@@...o@@@@oooo..@@@@ooo@@@@oooo....o@o++++oooo",
"+oooo....@@@@oooooo++.....oooo..oo.....oo@@@@oo@ooo@@@@oo@@@@@oooo....@@o++++ooo",
".@@@@.oooo@@....@@@@@..oooo@@@@ooooo+++ooooooo@@@oooo....@@@@@@@oooo@@@@....@@@@",
"@@@@@oooooo....@@@@@@@oooooo@@@oooo++++ooooooo@@@ooo.....@@@@@@@ooo@@@@@...@@@@@",
"@@@@@oooooo....@@@@@@@oooooo@@@@ooo++++oooooooo@@.oo.....@@@@@@oooo@@@@@...@@@@@",
".@@@@.oooo@@....@@@@@+.oooo@@@@..oo@++++oo@ooooo...o@....o@@@@@oooo.@@@@o...@@@@",
"+o@@o..oo@@@@..oo@@@++..oooo@@...@@@@++..@@@ooo....@@o..oooo@@oooo...@@oo+..+@@o",
"oooo....@@@@@@ooo++++....oooo....@@@@...@@@@ooo...@@@ooooo@@@oooo....ooo++++oooo"
};
