/* XPM */
static char *result[] = {
/* columns rows colors chars-per-pixel */
"80 80 21 1 ",
"  c black",
". c #543324",
"X c #663931",
"o c #2F421E",
"O c #72433B",
"+ c #4B692F",
"@ c #417021",
"# c #295845",
"$ c #5E6365",
"% c #8F563B",
"& c #DF7126",
"* c #915E55",
"= c #4A9417",
"- c #6EC035",
"; c #37946E",
": c #6EAE42",
"> c #D9A066",
", c #9BADB7",
"< c #E0BA93",
"1 c #EEC39A",
"2 c #EDD2B8",
/* pixels */
"---====@@@@::::=====---@@@@====@@@@@@@@@@@::::====@@::::==::::====@@@@===----===",
"--====@@@@:::::====---@@@@====@@@@@::@@@@::::====@@::::===:::====@@@@===----====",
"--====@@@@::::::===---@@@@====@@@@::::@@@::::===@@@:::=====::====@@@@===----====",
"@@-=::=@@==::::@@==::--@@===                :===@@@@::=@@===::====@@@::==-@@-::=",
"@@@::::@====::@@@@::::-@===  ;;;;;;;;;;;;;;  ====@@@=:@@@@=::::====@::::=@@@::::",
"@@:::::======@@@@::::::===  ;;;;;;;;;;;;;;;;  ==::@==@@@@@:::::====:::::@@@:::::",
"@@:::::======@@@@::::::    ;;;;;;;;;;;;;;;;;;   ::===@@@@@::::::===:::::@@@:::::",
"@@@::::@====::@@@@::::@ ;;;;;;;;;;;;;;;;;;;;;;; ::====@@@@::::::====::::@@@@::::",
"---====@@@@::::=====--@ ####################### :===::::==::::====@@@@::=----===",
"--====@@@@:::::====---@                         =@@::::===:::====@@@@=:=----====",
"--====@@@@::::::===---@@@@ 111  222211  1111 ===@@@:::=====::====@@@@===----====",
"@@-=::=@@==::::@@==::--@@= 112  222221  1111 ===@@@@::=@@===::====@@@::==-@@-::=",
"@@@::::@====::@@@@::::-@== 112  222221  1111 ====@@@=:@@@@=::::====@::::=@@@::::",
"@@:::::======@@@@::::::=== 112  222221  1111 ===::@==@@@@@:::::====:::::@@@:::::",
"@@:::::======@@@@::::::=== 11222222222211111 ==:::===@@@@@:::::====:::::@@@:::::",
"@@@::::=====::@@@@:::@@@@= 11122222222211111 ==:::====@@@@@@::::====::::::@@::::",
"@@::::@@@==::::@@==::@@@@= 11111122222111111 ==::::====@@@@@:::::==@@:::::@@:::=",
"---====@@@@::::=====-@@@@@ 11111111111111111 :====@@::::==::::====@@@@===----===",
"--====@@@@:::::====---@@@@ XXXXXX11111XXXXXX ====@@::::===:::====@@@@===----====",
"--====@@@@::::::===---@@@@ XXOOOXXXXXX***XX :===@@@:::=====::====@@@@===----====",
"@@-=::=@@==::::@@==::--@@= XXOOOOOOO*****XX :===@@@@::=@@==   ====@@@::==-@@-::=",
"@@@::::@====::@@@@::::-@== XXOOOOOO******XX     =@@@=:@@@@= ,, ====@::::=@@@::::",
"@@:::::======@@@@::::::==  XXOOOOO*******XX &&&    ==@@@@@: ,,, ===:::::@@@:::::",
"@@:::::======@@@@::::::  && XXOOO********XX&>>&###  =@@@@@: ,,,, ==:::::@@@:::::",
"@@@::::@====::@@@@::::@ &&&; XXOO********X&>>>&;;##  =@@@@: ,,,,,  =::::@@@@::::",
"---====@@@@::::=====-  #;&&;;;XX*******XXX&>>>&;;;## :::== ,,,$$$$ @@@::=----===",
"--====@@@@:::::====-  #;;>>&;;;XXX****XXX;&>>>&;;;;## :== ,,,$     @@=:=----====",
"--====@@@@::::::===  #;;;>>>&;;;XXXXXXXX;;&>>>&;;;;;#  = ,,,$ ===@@@@===----====",
"@@-=::=@@==::::@@=  #;;;;;>>&;;;;;;;;;;;;;&>>>&;;;;;##  ,,,$ :====@@@::==-@@-::=",
"@@@::::@====::@@@@ #;;;;;;#>>&;;;;;;;;;;;;&>>>&;;;;;;# ,,,$ :::====@::::=@@@::::",
"@@:::::======@@@@: #;;;;;##&>>&&;;;;;;;;&&&>>>&;;;;;; ,,,$ ::::====:::::@@@:::::",
"@@:::::======@@@@: #;;;;;#&&>>&&&&&&&&&&&&>>>>&#;;;; ,,,$ ::::=====:::::@@@:::::",
"@@@::::@@==:::@@@@ #;;;;;#&&>>>>>>>>>>>>>>>>>>&##;; ,,,$ @@::========::::@@@::::",
"@@===:@@@==::::@@: #;;;;##&&>>>>>>>>>>>>>>>>>>&&#; ,,,$ @@@@:========:::::@@::::",
"---====@@@@::::=== #;;;;#&&&>>>>>>>>>>>>>>>>>>&&# ,,,$  =@@::=====@@@@===----:::",
"--====@@@@:::::=== #;;;##&&&>>>>>>>>>>>>>>>>>>&& ,,,$ # ==:::====@@@@===----====",
"--====@@@@::::::== #;;;##&&&>>>>>>>>>>>>>>>>>>&  ,,$ ;# ===::====@@@@===----====",
"@@-=::=@@==::::@@= #;;;##&&&>>>>>>>>>>>>>>>>    ,,$ ;;# @===::====@@@::==-@@-::=",
"@@@::::@====::@@@@ #;;;##&&&>>>>>>>>>>>>>>   22  $ ;;;# @@=::::====@::::=@@@::::",
"@@:::::======@@@@: #;;;## &&&>>>>>>>>>>>>>  1221   ;;;# @@:::::====:::::@@@:::::",
"@@:::::======@@@@: #;;;;# &&&>>>>>>>>>>>>>  11111 ;;;;# @@::::::===:::::@@@:::::",
"@@@::::@====::@@@@  #;;;#  &&<<>>>>>>>>>>>  11111  ;;;# @@::::::====::::@@@@::::",
"---====@@@@::::==== #;;;##  &<<>>>>>>>>>> %  1 1;;;;;;# ==::::====@@@@::=----===",
"--====@@@@:::::====- #;;;##  <<<>>>>>>>> %%%    ;;;;;;# ==:::====@@@@=:=----====",
"--====@@@@::::::===-- #;;;;# &<<<>>>>>> %%%.  ;;;;;;;;# ===::====@@@@===----====",
"@@-=::=@@==::::@@==::  #;;;## <<<>>>>> %%%. >;;;;;;;;## @===::====@@@::==-@@-::=",
"@@@::::@====::@@@@::::  #;;;# &<<<>>> %%%. >>&;;;;####  @@=::::====@::::=@@@::::",
"@@:::::======@@@@:::::   #;;## <<<>> %%%. >>>&&;;##   @@@@:::::====:::::@@@:::::",
"@@:::::======@@@@::::::  ##;;##&&&& %%%. &&&&&&&   ==@@@@@:::::====:::::@@@:::::",
"@@@::::=====::@@@@:::@@ ;  #;;# &&&%%%. &&&&&&&& :====@@@@@@::::====::::::@@::::",
"@@::::@@@==::::@@==::@@ ;; #;;; & %%%. &&&&&&&&& ::====@@@@@:::::==@@:::::@@:::=",
"---====@@@@::::=====-@@ ;;  #;11   %. ++++++++++ =@@::::==::::====@@@@===----===",
"--====@@@@:::::====---@ +++ #111221   ++++++++++ @@::::===:::====@@@@===----====",
"--====@@@@::::::===---@ +++  111221  +++++++++++ @@:::=====::====@@@@===----====",
"@@-=::=@@==::::@@==::-- ++++ 111111  +++++++++++ @@@::=@@===::====@@@::==-@@-::=",
"@@@::::@====::@@@@::::- +++  111111 ++++++++++++ @@@=:@@@@=::::====@::::=@@@::::",
"@@:::::======@@@@:::::: +  %%      oooo+++++++++  @==@@@@@:::::====:::::@@@:::::",
"@@:::::======@@@@::::::  %%%% ++++oo  ooo++++++++ ===@@@@@::::::===:::::@@@:::::",
"@@::::@====::@@@@:::::@ %%%%. +++oo    oooo++++++ ====@@@@:::::::====::::@@@@:::",
"--====@@@@::::======-- %%%%%  ++ooo @@   oo++++++ ==::::==:::::====@@@@::=----==",
"-====@@@@:::::=====-- %%%%%. +++o  ::@@   o++++++ @::::===::::====@@@@=:=----===",
"-====@@@@::::::====- %%%%%.  ++oo ::::@@  o++++++ @:::======::====@@@@===----===",
"@-=::=@@==::::@@=== %%%%%.  +++o  ::::--@ oo+++++ @@::=@@====::====@@@::==-@@-::",
"@@::::@====::@@@@:  %%%%.  ++++o @==:----  o+++++ @@=:@@@@==::::====@::::=@@@:::",
"@:::::======@@@@::: %%%.  ++++oo ===----== o+++++ @==@@@@@::::::====:::::@@@::::",
"@:::::======@@@@:::  %. =        ===----==        ====@@@@::::::====:::::@@@::::",
"@:::::=====@@@@@::::   ==       ====----==        ===@@@@@::::::====:::::@@@::::",
":::::======@@@@::::::  ===      ===----====       ==@@@@@::::::====:::::@@@:::::",
":::::======@@@@:::::::====      ===----====      @==@@@@@::::::====:::::@@@:::::",
"@::::@====::@@@@:::::-@===      @==:----==:      @@=:@@@@=:::::====@::::=@@@::::",
"-=::=@@==::::@@==:::--@@==      @::::--@@::      @@::=@@====::====@@@::==-@@-::=",
"====@@@@::::::===----@@@@=      @::::@@@:::      @:::=====:::====@@@@===----====",
"====@@@@:::::====----@@@@         ::@@@=::         :::===::::====@@@@=:=----====",
"-====@@@@::::======--@@            @@@@=            :::==:::::====@@@@::=----===",
"@::::@====::@@@@:::::@              ---              @@@@:::::::====::::@@@@::::",
":::::======@@@@:::::::              ---              @@@@:::::::===:::::@@@:::::",
":::::======@@@@:::::::              ---              @@@@::::::====:::::@@@:::::",
"@::::@====::@@@@:::::-@====::::@@==:----==:=====@@@=:@@@@=:::::====@::::=@@@::::",
"-=::=@@==::::@@==:::--@@====::@@@::::--@@:::===@@@@::=@@====::====@@@::==-@@-::=",
"====@@@@::::::===----@@@@====@@@@::::@@@::::===@@@:::=====:::====@@@@===----===="
};
