/* XPM */
static char *result[] = {
/* columns rows colors chars-per-pixel */
"80 80 4 1 ",
"  c #4F3939",
". c gray25",
"X c #9E6A6A",
"o c #B08F8F",
/* pixels */
"oooooooooooooooooooooooooooooooooooooooooooooooooooooooooooooooooooooooooooooooo",
"XXXXXXXX   XXXXXXXXXXXXXXXXXXX   XXXXXXXXXXXXXXoooooXX   XXXXXXXXXXXXXXX   XXXXX",
"XXXXXXXXX XXXXXXXXXXXXXXXXXXXXX XXXXXXXXXXXXXXooooooXXX XXXXXXXXXXXXXXXXX XXXXXX",
"XXXXXXXXX XXXXXXXXXXXXXXXXXXXXX XXXXXXXXXXXXXXooooXXXXX XXXXXXXXXXXXXXXXX XXXXXX",
"XXXXXXXXX XXXXXXXXXXXXXXXXXXXXX XXXXXXXXXXXXXXoXXXXXXXX XXXXXXXXXXXXXXXXX XXXXXX",
"XXXXXXXXX XXXXXXXXXXXXXXXXXXXXX XXXXXXXXXXXXXXXXXXXXXXX XXXXXXXXXXXXXXXXX XXXXXX",
"XXXXXXXXX XXXXXXXXXXXXXXXXXXXXX XXXXXXXXXXXXXXXXXXXXXXX XXXXXXXXXXXXXXXXX XXXXXX",
"XXXXXXXXX XXXXXXXXXXXXXXXXXXXXX XXXXXXXXXXXXXXXXXXXXXXX XXXXXXXXXXXXXXXXX XXXXXX",
"XXXXXXXXX XXXXXXXXXXXXXXXXXXXXX XXXXXXXXXXXXXXXXXXXXXXX XXXXXXXXXXXXXXXX   XXXXX",
"XXXXXXXX   XXXXXXXXXXXXXXXXXXX   XXXXXXXXXXXXXXXXXXXXX  XX                      ",
"                                                           ooooooooooooooooooooo",
" ooooooooooooooooooooooooooooooooooooooooooooooooooooooooooXXXX   XXXXXXXXXXXXXX",
"oo  XXXXXXXXXXXXXXX   XXXXXXXXXXXXXX  XXXX   XXXXXXXXXXXXXXXXXXX XXXXXXXXXXXXXXX",
"XX XXXXXXXXXXXXXXXXX XXXXXXXXXXXXXX   XXXXX XXXXXXXXXXXXXXXXXXXX XXXXXXXXXXXXXXX",
"XX XXXXXXXXXXXXXXXXX XXXXXXXXXXXXX   XXXXXX XXXXXXXXXXXXXXXXXXXX XXXXXXXXXXXXXXX",
"XX XXXXXXXXXXXXXXXXX XXXXXXXXXXXXXXXXXXXXXX XXXXXXXXXXXXXXXXXXXX XXXXXXXXXXXXXXX",
"XX XXXXXXXXXXXXXXXXX XXXXXXXXXXXXXXXXXXXXXX XXXXXXXXXXXXXXXXXXXX XXXXXXXXXXXXXXX",
"XX XXXXXXXXXXXXXXXXX XXXXXXXXXXXXXXXXXXXXXX XXXXXXXXXXXXXXXXXXXX XXXXXXXXXXXXXXX",
"XX XXXXXXXXXXXXXXXXX XXXXXXXXXXXXXXXXXXXXXX XXXXXXXXXXXXXXXXXXXX XXXXXXXXXXXXXXX",
"XX XXXXXXXXXXXXXXXXX XXXXXXXXXXXXXXXXXXXXXX XXXXXXXXXXXXXXXXXXXX XXXXXXXXXXXXXXX",
"XX XXXXXXXXXooXXXXXX XXXXXXXXXXXXXXXXXXXXXX XXXXXXXXXXXXXXXXXXXX XXXXXXXXXXXXXXX",
"X   XXXXXXXooXXXXXX   XXXXXXXXXXXXXXXXXXXX   XXXXXXXXXXXXXXXXXX   XXXXXXXXXXXXXX",
"                                                                                ",
"oooooooooooooooooooooooooooooooooooooooooooooooooooooooooooooooooooooooooooooooo",
"XXXXXXX   XXXXXX  XXXXXXXXXXXXX   XXXXXXXXXXXooXXXXXX   XXXXXXXXXXXXXXXX   XXXXX",
"XXXXXXXX XXXXXXXX   XXXXXXXXXXXX XXXXXXXXXXXXXoXXXXXXX XXXXXXXXXXXXXXXXXX XXXXXX",
"XXXXXXXX XXXXXXXX   XXXXXXXXXXXX XXXXXXXXXXXXXXXXXXXXX XXXXXXXXXXXXXXXXXX XXXXXX",
"XXXXXXXX XXXXXXXXXX XXXXXXXXXXXX XXXXXXXXXXXXXXXXXXXXX XXXXXXXXXXXXXXXXXX XXXXXX",
"XXXXXXXX XXXXXXXXXXXXXXXXXXXXXXX XXXXXXXXXXXXXXXXXXXXX XXXXXXXXXXXXXXXXXX XXXXXX",
"XXXXXXXX XXXXXXXXXXXXXXXXXXXXXXX XXXXXXXXXXXXXXXXXXXXX XXXXXXXXXXXXXXXXXX XXXXXX",
"XXXXXXXX XXXXXXXXXXXXXXXXXXXXXXX XXXXXXXXXXXXXXXXXXXX   XXXXXXXXXXXXXXXXX XXXXXX",
"XXXXXXX   XXXXXXXXXXXXXXXXXXXXX   XXXXXXXXXXXXXXX              XXXXXXXXX   XXXXX",
"                                                 oooooooooooooo                 ",
"ooooooooooooooooooooooooooooooooooooooooooooooooXXXXXXXXXXXXXXX   XXXXooooo oooo",
"   XXXXXXXXXXXXXXX   XXXXXXXXXXXXXXXXXXXX   XXXXXXXXXXXXXXXXXXXX XXXXXXXXXXXXXXX",
"X XXXXXXXXXXXXXXXXX XXXXXXXXXXXXXXXXXXXXXX XXXXXXXXXXXXXXXXXXXXX XXXXXXXXXXXXXXX",
"X XXXXXXXXXXXXXXXXX XXXXXXXXXXXXXXXXXXXXXX XXXXXXXXXXXXXXXXXXXXX XXXXXXXXXXXXXXX",
"o XXXXXXXXXXXXXXXXX XXXXXXXXXXXXXXXXXXXXXX XXXXXXXXXXXXXXXXXXXXX XXXXXXXXXXXXXXX",
"o XXXXXXXXXXXXXXXXX XXXXXXXXXXXXXXXXXXXXXX XXXXXXXXXXXXXXXXXXXXX XXXXXXXXXXXXXXX",
"X XXXXXXXXXXXXXXXXX XXXXXXXXXXXXXXXXXXXXXX XXXXXXXXXXXXXXXXXXXXX XXXXXXXXXXXXXXX",
"X XXXXXXXXXXXXXXXXX XXXXXXXXXXXXXXXXXXXXXX XXXXXXXXXXXXXXXXXXXXX XXXXXXXXXXXXXXX",
"X XXXXXXXXXXXXXXXXX XXXXXXXXXXXXXXXXXXXXXX XXXXXXXXXXXXXXXXXXXXX XXXXXXXXXXXXXXX",
"X XXXXXXXXXXXXXXXXX XXXXXXXXXXXXXXXXXXXXXX XXXXXXXXXXXXXXXXXXXXX XXXXXXXXXXXXXXX",
"   XXXXXXXXXXXXXXX   XXXXXXXXXXXXXXXXXXXX   XXXXXXXXXXXXXXXXXXX   XXXXXXXXXXXXXX",
"                                                                                ",
"oooooooooooooooooooooooooooooooooooooooooooooooooooooooooooooooooooooooooooooooo",
"XXXXXXX   XXXXXXXXoXXXXXXXXXXX  ooXXX..XXXXXXXXXXXXX   XXXXXXXXXXXXXXXX   XXXXXX",
"XXXXXXXX XXXXXXXXXoXXXXXXXXXXXX oXXXXX...XXXXXXXXXXXX XXXXXXXXXXXXXXXXXX XXXXXXX",
"XXXXXXXX XXXXXXXXXXXXXXXXXXXXXX oXXXXXXXX.XXXXXXXXXXX XXXXXXXXXXXXXXXXXX XXXXXXX",
"XXXXXXXX XXXXXXXXXXXXXXXXXXXXXX oXXXXXXXXXXXXXXXXXXXX XXXXXXXXXXXXXXXXXX XXXXXXX",
"XXXXXXXX XXXXXXXXXXXXXXXXXXXXXX oXXXXXXXXXXXXXXXXXXXX XXXXXXXXXXXXXXXXXX XXXXXXX",
"XXXXXXXX XXXXXXXXXXXXXXXXXXXXXX oXXXXXXXXXXXXXXXXXXXX XXXXXXXXXXXXXXXXXX XXXXXXX",
"XXXXXXXX XXXXXXXXXXXXXXXXXXXXXX oXXXXXXXXXXXXXXXXXXXX XXXXXXXXXX  XXXXXX XXXXXXX",
"XXXXXXXX XXXXXXXXXXXXXXXXXXXXXX oXXXXXXXXXXXXXXXXXXXX XXXXXXXXXX XXXXXXX XXXXXXX",
"XXXXXXXX XXXXXXXXXXXXXXXXXXXXXX XXXXXXXXXXXXXXXXXXXXX XXXXXXXXX  XXXXXXX XXXXXXX",
"XXXXXXXX XXXXXXXXXXXXXXXXXXXXXX XXXXXXXXXXXXXXXXXXXXX XXXXXXXX  XXXXXXXX XXXXXXX",
"XXXXXXX   XXXXXXXXXXXXXXXXXXXX   XXXXXX   XXXXXXXXXX   XXXXXX   XXXXXXX   XXXXXX",
"                                                                                ",
"oooooooooooooooooooooooooooooooooooooooooooooooooooooooooooooooooooooooooooooooo",
"   XXXXXXXXXXXXXX   XXXXXXXXXXXXXXXXXXXXXX   XXXXXXXXXXXXXXXXX   XXXXXXXXXXXXXXX",
"X XXXXXXXXXXXXXXXX XXXXXXXXXXXXXXXXXXXXXXXX XXXXXXXXXXXXXXXXXXX XXXXXXXXXXXXXXXX",
"X XXXXXXXXXXXXXXXX XXXXXXXXXXXXXXXXXXXXXXXX XXXXXXXXXXXXXXXXXX  XXXXXXXXXXXXXXXX",
"X XXXXXXXXXXXXXXXX XXXXXXXXXXXXXXXXXXXXXXXX XXXXXXXXXXXXXXXXXX  XXXXXXXXXXXXXXXX",
"X XXXXXXXXXXXXXXXX XXXXXXXXXXXXXXXXXXXXXXXX XXXXXXXXXXXXXXXXXX   XXXXXXXXXXXXXXX",
"X XXXXXXXXXXXXXXXX XXXXXXXXXXXXXXXXXXXXXXXX XXXXXXXXXXXXXXXXXXX  XXXXXXXXXXXXXXX",
"X XXXXXXXXXXXXXXXX XXXXXXXXXXXXXXXXXXXXXXXX XXXXXXXXXXXXXXXXXXX  XXXXXXXXXXXXXXX",
"   XXXXXXXXXXXXXX   XXXXXXXXXXXXXXXXXXXXXXX XXXXXXXXXXXXXXXXXX    XXXXXXXXXXXXXX",
"                                         X   XXXXXXXXXXXXXXXX                   ",
"ooooooooooooooooooooooooooooooooooooo                                           ",
"XXXXXXX   XXXXXXXXXX   XXXXXX   XXXXXooooooooooooooooooooooooooooooooooooooooooo",
"XXXXXXXX XXXXXXXXXX    XXXXXXX XXXXXXXXXXXXXXXXXXXXXo   XXXXXXXXXXXXXX   XXXXXXX",
"XXXXXXXX XXXXXXXX    XXXXXXXXX XXXXXXXXXXXXXXXXXXXXXoo XXXXXXXXXXXXXXXX XXXXXXXX",
"XXXXXXXX XXXXXXXXX  XXXXXXXXXX XXXXXXXXXXXXXXXXXXXXXXo XXXXXXXXXXXXXXXX XXXXXXXX",
"XXXXXXXX XXXXXXXXXXXXXXXXXXXXX XXXXXXXXXXXXXXXXXXXXXXo XXXXXXXXXXXXXXXX XXXXXXXX",
"XXXXXXXX XXXXXXXXXXXXXXXXXXXXX XXXXXXXXXXXXXXXXXXXXXXo XXXXXXXXXXXXXXXX XXXXXXXX",
"XXXXXXXX XXXXXXXXXXXXXXXXXXXXX XXXXXXXXXXXXXXXXXXXXXXX XXXXXXXXXXXXXXXX XXXXXXXX",
"XXXXXXXX XXXXXXXXXXXXXXXXXXXXX XXXXXXXXXXXXXXXXXXXXXXX XXXXXXXXXXXXXXXX XXXXXXXX",
"XXXXXXXX XXXXXXXXXXXXXXXXXXXXX XXXXXXXXXXXXXXXXXXXXXXX XXXXXXXXXXXXXXXX XXXXXXXX",
"XXXXXXX   XXXXXXXXXXXXXXXXXXX   XXXXXXXXXXXXXXXXXXXXX   XXXXXXXXXXXXXX   XXXXXXX",
"                                                                                "
};
